<?xml version="1.0" standalone="no"?>
<!DOCTYPE svg PUBLIC "-//W3C//DTD SVG 20010904//EN" "http://www.w3.org/TR/2001/REC-SVG-20010904/DTD/svg10.dtd">
<!-- Created using Krita: https://krita.org -->
<svg xmlns="http://www.w3.org/2000/svg" 
    xmlns:xlink="http://www.w3.org/1999/xlink"
    xmlns:krita="http://krita.org/namespaces/svg/krita"
    xmlns:sodipodi="http://sodipodi.sourceforge.net/DTD/sodipodi-0.dtd"
    width="576pt"
    height="864pt"
    viewBox="0 0 576 864">
<style>
@font-face {
    font-family: "Bebas Neue";
    font-style: normal;
    font-weight: 400;
    src: url("../fonts/bebas-neue.woff2") format("woff2");
}
</style>
<defs/>
<rect id="shape0" fill="#000000" fill-rule="evenodd" stroke-opacity="0" stroke="#000000" stroke-width="0" stroke-linecap="square" stroke-linejoin="bevel" width="576" height="864"/><text id="shape01" krita:useRichText="true" krita:textVersion="2" transform="translate(64.125, 826.839995265157)" fill="#ffffff" stroke-opacity="0" stroke="#000000" stroke-width="0" stroke-linecap="square" stroke-linejoin="bevel" font-family="Bebas Neue" font-size="125" font-size-adjust="0.538577" font-stretch="normal" letter-spacing="0" word-spacing="0"><tspan x="0">PILGRIMAGE</tspan></text><rect id="shape2" transform="matrix(0.999999966519569 0 0 1.09459568873566 36.0075002675058 36.9696170643598)" fill="#7cbeff" fill-rule="evenodd" stroke-opacity="0" stroke="#000000" stroke-width="0" stroke-linecap="square" stroke-linejoin="bevel" width="503.762472191549" height="149.313460738347"/><ellipse id="shape02" transform="matrix(0.82629830919449 0.000459711050989262 -0.00600396271481299 0.789997930155887 244.245724107994 50.3619361984238)" rx="67.1400129501504" ry="67.1400129501505" cx="67.1400129501504" cy="67.1400129501505" fill="#f5bd77" fill-rule="evenodd" stroke="#000000" stroke-width="1.2" stroke-linecap="square" stroke-linejoin="bevel"/><ellipse id="shape01" transform="matrix(0.826298344047193 0.00045971107037956 -0.00600396296805606 0.789997963477459 254.465938083259 60.5056722059365)" rx="54.6331654825686" ry="54.6331654825687" cx="54.6331654825686" cy="54.6331654825687" fill="#fcdd93" fill-rule="evenodd" stroke="#000000" stroke-width="1.2" stroke-linecap="square" stroke-linejoin="bevel"/><ellipse id="shape02" transform="matrix(0.826298337171515 0.000459711066554277 -0.00600396291809672 0.789997956903843 265.67916725676 70.9768981406963)" rx="40.9691693717836" ry="40.9691693717837" cx="40.9691693717836" cy="40.9691693717837" fill="#f2ebb5" fill-rule="evenodd" stroke="#000000" stroke-width="1.2" stroke-linecap="square" stroke-linejoin="bevel"/><rect id="shape1" transform="matrix(1 0 0 0.972805623603951 36.0112510890568 200.377487460633)" fill="#eaae83" fill-rule="evenodd" stroke="#000000" stroke-width="1.2" stroke-linecap="square" stroke-linejoin="bevel" width="503.756206836721" height="516.127036687369"/><rect id="shape03" transform="translate(225.33749999742, 200.174999984914)" fill="#88b988" fill-rule="evenodd" stroke="#000000" stroke-width="1.2" stroke-linecap="square" stroke-linejoin="bevel" width="314.4" height="70.0649830783031"/><path id="shape04" transform="matrix(0.987759691697556 0.155983131036301 -0.155983131036301 0.987759691697556 85.0872528917774 219.106105844071)" fill="#72cba5" fill-rule="evenodd" stroke="#000000" stroke-width="1.2" stroke-linecap="square" stroke-linejoin="bevel" d="M0 314.696L460.307 0L482.312 139.367L26.9143 485.103L14.9268 409.027L9.65894e-15 314.696" sodipodi:nodetypes="cccccc"/><path id="shape05" transform="matrix(1.74643776624113 0 0 1.11712064502722 126.99739450899 400.742463192163)" fill="#ce435c" fill-rule="evenodd" stroke="#000000" stroke-width="1.2" stroke-linecap="square" stroke-linejoin="bevel" d="M15.1767 270.251C6.53668 242.411 1.48851 212.184 0.0485104 180.504C-2.11149 132.984 68.4485 150.984 94.3685 129.024C120.288 107.064 156.768 97.824 171.888 88.104C187.008 78.384 188.809 25.5841 204.769 12.624C215.409 3.98404 226.02 -0.0788413 236.339 0.00115821C236.344 3.70074 236.339 7.44712 236.343 11.4312C236.432 104.544 236.344 270.236 236.345 270.255C236.381 270.112 109.611 269.82 15.1767 270.251Z" sodipodi:nodetypes="czzzzcccc"/><path id="shape11" transform="matrix(1.74643776624113 0 0 1.11712064502722 374.22001371032 425.53877421422)" fill="#c23357" fill-rule="evenodd" stroke="#000000" stroke-width="1.2" stroke-linecap="square" stroke-linejoin="bevel" d="M56.1608 0C45.8724 38.3391 38.2724 59.6265 33.5206 63.5863C28.7689 67.5461 17.5434 73.1867 0 79.8761C0.0171778 79.9902 18.8255 52.9482 56.1608 0Z" sodipodi:nodetypes="czcc"/><path id="shape21" transform="matrix(1.76031960449293 0 0 1.12321723504746 37.1655336310363 583.108553169101)" fill="#c23357" fill-rule="evenodd" stroke="#000000" stroke-width="1.2" stroke-linecap="square" stroke-linejoin="bevel" d="M54.5659 0C35.4972 36.6807 19.0687 68.7794 0 105.46L70.0326 106.266C54.9126 47.0671 46.5659 13.28 54.5659 0Z" sodipodi:nodetypes="cccc"/><path id="shape3" transform="matrix(0.991589024419173 0 -0.00113596899269168 0.956686609716453 36.1732163696065 203.049806373418)" fill="#c23357" fill-rule="evenodd" stroke="#000000" stroke-width="1.2" stroke-linecap="square" stroke-linejoin="bevel" d="M0.150328 283.703C40.9503 269.783 70.7666 242.399 93.8066 228.639C128.367 207.999 171.927 193.479 203.607 182.919C235.287 172.359 245.247 146.919 263.007 117.639C280.767 88.3582 260.127 52.5986 252.447 42.9986C244.767 33.3986 206.847 -3.56138 164.127 0.278617C121.407 4.11862 116.127 9.87862 74.8466 9.39862C47.3266 9.07862 22.6866 7.15862 0.92663 3.63862C-0.149139 3.88611 -0.0611496 103.938 0.0888796 236.67C0.110345 252.027 0.126615 267.553 0.150328 283.703Z" sodipodi:nodetypes="czzzzzzccc"/><path id="shape4" transform="matrix(0.991589024419173 0 -0.00113596899269168 0.956686609716453 36.1019598324964 199.502172262234)" fill="#ce435c" fill-rule="evenodd" stroke="#000000" stroke-width="1.2" stroke-linecap="square" stroke-linejoin="bevel" d="M0.113586 182.303C54.4705 170.765 82.8492 160.801 100.61 147.121C127.25 126.601 197.871 119.279 209.391 113.519C220.911 107.759 262.127 77.5469 253.127 46.9469C244.127 16.3469 204.565 -5.5164 214.247 1.22688C223.929 7.97016 172.922 77.8372 86.4459 75.3869C-0.0289515 72.9366 -0.78586 67.0392 0.491358 67.2166C-0.225032 68.9018 0.0283995 75.3671 0.113586 182.303Z" sodipodi:nodetypes="czzzzzcc"/><path id="shape5" transform="matrix(0.991589024419173 0 -0.00113596899269168 0.956686609716453 35.8718353976261 79.4737470896912)" fill="#c23357" fill-rule="evenodd" stroke="#000000" stroke-width="1.2" stroke-linecap="square" stroke-linejoin="bevel" d="M0.422866 249.694C35.8775 239.594 42.06 235.937 70.86 224.057C99.66 212.177 149.126 201.638 169.74 189.017C190.354 176.396 214.343 148.053 216.143 129.333C217.943 110.613 206.82 87.9767 203.94 71.0567C202.02 59.7767 197.922 36.16 192.722 0C170.322 13.92 154.38 20.0567 143.82 18.6167C127.98 16.4567 107.34 25.4567 77.1 31.5767C46.86 37.6967 62.34 34.5767 35.34 24.1367C17.34 17.1767 5.4699 15.9111 0.429893 19.9911C0.00161419 42.857 -0.269129 143.758 0.422866 249.694Z" sodipodi:nodetypes="czzzzczzzcc"/><path id="shape6" transform="matrix(0.991589024419173 0 -0.00113596899269168 0.956686609716453 35.9970616033276 46.1910560803155)" fill="#ce435c" fill-rule="evenodd" stroke="#000000" stroke-width="1.2" stroke-linecap="square" stroke-linejoin="bevel" d="M0.078525 83.7985C0.418318 83.5395 14.3252 85.7531 39.9065 77.4015C65.4878 69.0498 60.1877 69.7702 93.8407 63.5171C127.494 57.2639 141.751 62.0544 159.812 57.0813C177.873 52.1082 192.607 45.7309 192.598 34.8403C192.59 23.9497 180.112 12.1814 162.417 6.65729C144.722 1.13321 90.109 0.445681 89.5753 0.410939C89.0417 0.376196 26.9954 0.0846118 26.6572 0.0720659C26.319 0.0595201 15.5018 -0.169369 0.0032633 0.260216C-0.0191392 9.9068 0.0812384 57.2958 0.078525 83.7985Z" sodipodi:nodetypes="czzzzzzzcc"/><path id="shape06" transform="matrix(0.998234496742687 0 0 1.00015433288338 455.264246829071 103.560000126213)" fill="#845eb2" fill-rule="evenodd" stroke="#000000" stroke-width="1.2" stroke-linecap="square" stroke-linejoin="bevel" d="M58.44 0L0 96.72L84.6144 96.8138C84.6151 96.8251 84.6244 93.2398 84.6144 87.7965C84.6194 87.7133 84.5751 75.0277 84.6219 67.7745C84.6209 67.7718 84.536 59.3087 84.6288 51.6253C84.617 51.5592 84.6149 44.7207 84.6394 42.8868C84.6304 42.8263 84.6411 40.4191 84.6341 40.3894C84.632 39.9915 84.6311 39.2557 84.6288 39.2546L58.44 0" sodipodi:nodetypes="cccccccccc"/><path id="shape011" transform="matrix(1.10467994251779 0 0 1.10467994251779 338.452523712592 67.1399988582086)" fill="#845eb2" fill-rule="evenodd" stroke="#000000" stroke-width="1.2" stroke-linecap="square" stroke-linejoin="bevel" d="M0 120.321L72.2946 0L151.717 120.491L0 120.321" sodipodi:nodetypes="cccc"/><path id="shape011" transform="matrix(1.52544417676405 0 0 1.52544417676405 418.804359705784 67.6071018205212)" fill="#4e4b9c" fill-rule="evenodd" stroke="#000000" stroke-width="0.96" stroke-linecap="square" stroke-linejoin="bevel" d="M0.055625 0.11125L57.3018 86.5419L37.2841 86.5505L0 0" sodipodi:nodetypes="cccc"/><path id="shape12" transform="translate(513.629248460794, 103.695000453339)" fill="#4e4b9c" fill-rule="evenodd" stroke="#000000" stroke-width="1.2" stroke-linecap="square" stroke-linejoin="bevel" d="M0 0C8.72079 13.0394 17.4761 26.065 26.1037 39.1416L26.0931 54.5848L0 0" sodipodi:nodetypes="cccc"/><path id="shape07" transform="matrix(0.999798024851756 0 0 1.00097807551099 388.069854429693 79.8323863924914)" fill="#9797e9" fill-rule="evenodd" stroke="#000000" stroke-width="1.2" stroke-linecap="square" stroke-linejoin="bevel" d="M0 120.321L72.2946 0L151.717 120.491C152.029 120.432 50.4713 120.327 0 120.321" sodipodi:nodetypes="cccc"/><path id="shape012" transform="matrix(0.999798003051279 0 0 1.00097805368478 321.645941915674 112.054546491916)" fill="#9797e9" stroke="#000000" stroke-width="1.2" stroke-linecap="square" stroke-linejoin="bevel" d="M0 87.9935L52.8707 0L110.954 88.1178L0 87.9935" sodipodi:nodetypes="cccc"/><path id="shape13" transform="translate(374.903341237176, 112.243824042514)" fill="#485fbb" fill-rule="evenodd" stroke="#000000" stroke-width="1.2" stroke-linecap="square" stroke-linejoin="bevel" d="M0 0L58.1666 87.8227L38.1413 87.9075L0 0" sodipodi:nodetypes="cccc"/><path id="shape22" transform="translate(460.245002468077, 79.8749999839151)" fill="#485fbb" fill-rule="evenodd" stroke="#000000" stroke-width="1.2" stroke-linecap="square" stroke-linejoin="bevel" d="M0 0L79.44 120.48L60.2666 120.521L0 0" sodipodi:nodetypes="cccc"/><text id="shape08" krita:useRichText="true" krita:textVersion="2" transform="matrix(0.0749437889370551 0.0713416343872048 -0.0713416343872048 0.0749437889370551 376.431530412327 486.328737619833)" fill="#ffffff" stroke="#000000" stroke-width="18" stroke-linecap="square" stroke-linejoin="bevel" font-family="Bebas Neue" font-size="2000" font-size-adjust="0.538577" font-stretch="normal" letter-spacing="0" word-spacing="0"><tspan x="0">P</tspan></text><text id="shape09" krita:useRichText="true" krita:textVersion="2" transform="matrix(0.074943788937055 0.0713416343872048 -0.0713416343872048 0.074943788937055 408.2700196027 467.471183256734)" fill="#000000" stroke-opacity="0" stroke="#000000" stroke-width="0" stroke-linecap="square" stroke-linejoin="bevel" font-family="Bebas Neue" font-size="1300" font-size-adjust="0.538577" font-stretch="normal" letter-spacing="0" word-spacing="0"><tspan x="0">P</tspan></text><rect id="shape010" transform="matrix(0.0747478976125343 0.071546900048894 -0.071546900048894 0.0747478976125343 480.534113550265 416.924916802366)" fill="#000000" fill-rule="evenodd" stroke-opacity="0" stroke="#000000" stroke-width="0" stroke-linecap="square" stroke-linejoin="bevel" width="191.52" height="414.72"/><path id="shape011" transform="matrix(0.103467469670281 0.000825382909087515 -0.000825382909087515 0.103467469670281 421.925320496425 422.573504541543)" fill="none" stroke="#ffffff" stroke-width="14.4" stroke-linecap="square" stroke-linejoin="miter" stroke-miterlimit="2" d="M542.662 0L0 573.135" sodipodi:nodetypes="cc"/><path id="shape04" transform="matrix(0.103449215554275 -0.00211111273762665 -0.00211111273762665 -0.103449215554275 479.36880037224 453.706268362172)" fill="none" stroke="#ffffff" stroke-width="14.4" stroke-linecap="square" stroke-linejoin="miter" stroke-miterlimit="2" d="M274.295 0L0 289.698" sodipodi:nodetypes="cc"/><rect id="shape0" transform="translate(305.879998055632, 477.779982438979)" fill="#000000" fill-rule="evenodd" stroke="none" stroke-width="0.24" stroke-linecap="square" stroke-linejoin="bevel" width="128.15999910422" height="224.739428804339"/><rect id="shape1" transform="translate(346.301293228322, 435.599986583194)" fill="#000000" fill-rule="evenodd" stroke="none" stroke-width="0.48" stroke-linecap="square" stroke-linejoin="bevel" width="47.5175758957467" height="42.2589761020515"/><path id="shape2" transform="translate(305.69326076078, 448.045363099085)" fill="#000000" fill-rule="evenodd" stroke="none" stroke-width="0.48" stroke-linecap="square" stroke-linejoin="bevel" d="M0 29.7833L62.7701 0L62.6323 30.2925Z" sodipodi:nodetypes="cccc"/><ellipse id="shape3" transform="matrix(0.965357061956061 0.260932448981657 -0.260932448981657 0.965357061956061 285.230353017657 468.915521401824)" rx="30.2278813866376" ry="89.04" cx="30.2278813866376" cy="89.04" fill="#000000" fill-rule="evenodd" stroke="none" stroke-width="0.48" stroke-linecap="square" stroke-linejoin="bevel"/><path id="shape012" transform="matrix(-0.999999962711625 0 0 0.999999962711625 434.209808485649 448.049404501709)" fill="#000000" fill-rule="evenodd" stroke-opacity="0" stroke="#000000" stroke-width="0" stroke-linecap="square" stroke-linejoin="bevel" d="M0 29.7833L62.7701 0L62.6323 30.2925Z" sodipodi:nodetypes="cccc"/><rect id="shape4" transform="translate(317.83029041203, 320.697131035317)" fill="#000000" fill-rule="evenodd" stroke="none" stroke-width="0.48" stroke-linecap="square" stroke-linejoin="bevel" width="104.238262655254" height="124.138327776283" rx="52.08" ry="62.0691638881415"/><ellipse id="shape013" transform="matrix(-0.965357019627509 0.260932437540406 0.260932437540406 0.965357019627509 454.691736892235 468.876014880517)" rx="30.2278813866376" ry="89.04" cx="30.2278813866376" cy="89.04" fill="#000000" fill-rule="evenodd" stroke-opacity="0" stroke="#000000" stroke-width="0" stroke-linecap="square" stroke-linejoin="bevel"/>
</svg>
