<?xml version="1.0" standalone="no"?>
<!DOCTYPE svg PUBLIC "-//W3C//DTD SVG 20010904//EN" "http://www.w3.org/TR/2001/REC-SVG-20010904/DTD/svg10.dtd">
<!-- Created using Krita: https://krita.org -->
<svg xmlns="http://www.w3.org/2000/svg" 
    xmlns:xlink="http://www.w3.org/1999/xlink"
    xmlns:krita="http://krita.org/namespaces/svg/krita"
    xmlns:sodipodi="http://sodipodi.sourceforge.net/DTD/sodipodi-0.dtd"
    width="576pt"
    height="864pt"
    viewBox="0 0 576 864">
<style>
@font-face {
    font-family: "Bebas Neue";
    font-style: normal;
    font-weight: 400;
    src: url("../fonts/bebas-neue.woff2") format("woff2");
}
</style>
<defs/>
<rect id="shape0" fill="#000000" fill-rule="evenodd" stroke="none" stroke-width="0.24" stroke-linecap="square" stroke-linejoin="bevel" width="576" height="864"/><text id="shape01" krita:useRichText="true" krita:textVersion="2" transform="translate(64.125, 826.839995265157)" fill="#ffffff" stroke-opacity="0" stroke="#000000" stroke-width="0" stroke-linecap="square" stroke-linejoin="bevel" font-family="Bebas Neue" font-size="125" font-size-adjust="0.538577" font-stretch="normal" letter-spacing="0" word-spacing="0"><tspan x="0">PILGRIMAGE</tspan></text><rect id="shape2" transform="matrix(0.999999966519569 0 0 1.09459568873566 36.0075002675058 36.9696170643598)" fill="#77b3fe" fill-rule="evenodd" stroke-opacity="0" stroke="#000000" stroke-width="0" stroke-linecap="square" stroke-linejoin="bevel" width="503.762472191549" height="149.200418112575"/><g id="group0" transform="matrix(0.700214433105712 -0.000804789286409362 0.000804789286409364 0.700214433105712 243.317589263016 50.3630029473285)" fill="none">
  <ellipse id="shape02" transform="matrix(1.18006234979415 0.00201282995717095 -0.00987116935552051 1.12821151435089 1.32550087672581 1.4210854715202e-14)" rx="67.1400129501504" ry="67.1400129501505" cx="67.1400129501504" cy="67.1400129501505" fill="#fbb359" fill-rule="evenodd" stroke-opacity="0" stroke="#000000" stroke-width="0" stroke-linecap="square" stroke-linejoin="bevel"/>
  <ellipse id="shape01" transform="matrix(1.18006239956838 0.00201283004207075 -0.00987116977187972 1.12821156193808 15.9046659662105 14.5033702295141)" rx="54.6331654825686" ry="54.6331654825687" cx="54.6331654825686" cy="54.6331654825687" fill="#fbcd59" fill-rule="evenodd" stroke-opacity="0" stroke="#000000" stroke-width="0" stroke-linecap="square" stroke-linejoin="bevel"/>
  <ellipse id="shape02" transform="matrix(1.18006238974901 0.00201283002532187 -0.00987116968974113 1.12821155255017 31.9014503455863 29.4760692767824)" rx="40.9691693717836" ry="40.9691693717837" cx="40.9691693717836" cy="40.9691693717837" fill="#fff28e" fill-rule="evenodd" stroke-opacity="0" stroke="#000000" stroke-width="0" stroke-linecap="square" stroke-linejoin="bevel"/>
 </g><rect id="shape1" transform="matrix(1 0 0 0.972805623603951 36.0112510890568 200.159984397771)" fill="#d67d5a" fill-rule="evenodd" stroke-opacity="0" stroke="#000000" stroke-width="0" stroke-linecap="square" stroke-linejoin="bevel" width="503.756206836721" height="516.350619957844"/><path id="shape03" transform="matrix(0.987759691697556 0.155983131036301 -0.155983131036301 0.987759691697556 85.0872528917774 219.106105844071)" fill="#4184e1" fill-rule="evenodd" stroke-opacity="0" stroke="#000000" stroke-width="0" stroke-linecap="square" stroke-linejoin="bevel" d="M0 314.696L460.307 0L482.312 139.367L26.9143 485.103L14.9268 409.027L9.65894e-15 314.696" sodipodi:nodetypes="cccccc"/><rect id="shape04" transform="translate(225.33749999742, 200.174999984914)" fill="#76c578" fill-rule="evenodd" stroke-opacity="0" stroke="#000000" stroke-width="0" stroke-linecap="square" stroke-linejoin="bevel" width="314.4" height="68.16"/><path id="shape05" transform="matrix(1.74643776624113 0 0 1.11712064502722 126.997394292165 400.562463178701)" fill="#e43539" fill-rule="evenodd" stroke-opacity="0" stroke="#000000" stroke-width="0" stroke-linecap="square" stroke-linejoin="bevel" d="M15.1767 270.251C6.53668 242.411 1.48851 212.184 0.0485104 180.504C-2.11149 132.984 68.4485 150.984 94.3685 129.024C120.288 107.064 156.768 97.824 171.888 88.104C187.008 78.384 188.809 25.5841 204.769 12.624C215.409 3.98404 226.02 -0.0788413 236.339 0.00115821C236.344 3.70074 236.339 7.44712 236.343 11.4312C236.432 104.544 236.344 270.236 236.345 270.255C236.381 270.112 109.611 269.82 15.1767 270.251Z" sodipodi:nodetypes="czzzzcccc"/><path id="shape11" transform="matrix(1.74643776624113 0 0 1.11712064502722 374.22001371032 425.53877421422)" fill="#c41830" fill-rule="evenodd" stroke-opacity="0" stroke="#000000" stroke-width="0" stroke-linecap="square" stroke-linejoin="bevel" d="M56.1608 0C45.8724 38.3391 38.2724 59.6265 33.5206 63.5863C28.7689 67.5461 17.5434 73.1867 0 79.8761C0.0171778 79.9902 18.8255 52.9482 56.1608 0Z" sodipodi:nodetypes="czcc"/><path id="shape21" transform="matrix(1.76031960449293 0 0 1.12321723504746 35.9828978387114 578.879963147835)" fill="#c41830" fill-rule="evenodd" stroke-opacity="0" stroke="#000000" stroke-width="0" stroke-linecap="square" stroke-linejoin="bevel" d="M57.206 0L0 110.042L70.7526 110.031C55.6326 50.8318 49.206 13.28 57.206 0Z" sodipodi:nodetypes="cccc"/><path id="shape3" transform="matrix(0.991589024419173 0 -0.00113596899269168 0.956686609716453 36.1732162419178 203.04980587858)" fill="#c41830" fill-rule="evenodd" stroke-opacity="0" stroke="#000000" stroke-width="0" stroke-linecap="square" stroke-linejoin="bevel" d="M0.150328 283.703C40.9503 269.783 70.7666 242.399 93.8066 228.639C128.367 207.999 171.927 193.479 203.607 182.919C235.287 172.359 245.247 146.919 263.007 117.639C280.767 88.3582 260.127 52.5986 252.447 42.9986C244.767 33.3986 206.847 -3.56138 164.127 0.278617C121.407 4.11862 116.127 9.87862 74.8466 9.39862C47.3266 9.07862 22.6866 7.15862 0.92663 3.63862C-0.149139 3.88611 -0.0611496 103.938 0.0888796 236.67C0.110345 252.027 0.126615 267.553 0.150328 283.703Z" sodipodi:nodetypes="czzzzzzccc"/><path id="shape4" transform="matrix(0.991589024419173 0 -0.00113596899269168 0.956686609716453 36.1019597053594 199.502172130129)" fill="#e43539" fill-rule="evenodd" stroke-opacity="0" stroke="#000000" stroke-width="0" stroke-linecap="square" stroke-linejoin="bevel" d="M0.113586 182.303C54.4705 170.765 82.8492 160.801 100.61 147.121C127.25 126.601 197.871 119.279 209.391 113.519C220.911 107.759 262.127 77.5469 253.127 46.9469C244.127 16.3469 204.565 -5.5164 214.247 1.22688C223.929 7.97016 172.922 77.8372 86.4459 75.3869C-0.0289515 72.9366 -0.78586 67.0392 0.491358 67.2166C-0.225032 68.9018 0.0283995 75.3671 0.113586 182.303Z" sodipodi:nodetypes="czzzzzcc"/><path id="shape5" transform="matrix(0.991589024419173 0 -0.00113596899269168 0.956686609716453 35.8718353470185 79.4737470896912)" fill="#c41830" fill-rule="evenodd" stroke-opacity="0" stroke="#000000" stroke-width="0" stroke-linecap="square" stroke-linejoin="bevel" d="M0.422866 249.694C35.8775 239.594 42.06 235.937 70.86 224.057C99.66 212.177 149.126 201.638 169.74 189.017C190.354 176.396 214.343 148.053 216.143 129.333C217.943 110.613 206.82 87.9767 203.94 71.0567C202.02 59.7767 197.922 36.16 192.722 0C170.322 13.92 154.38 20.0567 143.82 18.6167C127.98 16.4567 107.34 25.4567 77.1 31.5767C46.86 37.6967 62.34 34.5767 35.34 24.1367C17.34 17.1767 5.4699 15.9111 0.429893 19.9911C0.00161424 42.857 -0.269129 143.758 0.422866 249.694Z" sodipodi:nodetypes="czzzzczzzcc"/><path id="shape6" transform="matrix(0.991589024419173 0 -0.00113596899269168 0.956686609716453 35.997061606204 46.1910560665089)" fill="#e43539" fill-rule="evenodd" stroke-opacity="0" stroke="#000000" stroke-width="0" stroke-linecap="square" stroke-linejoin="bevel" d="M0.078525 83.7985C0.418318 83.5395 14.3252 85.7531 39.9065 77.4015C65.4878 69.0498 60.1877 69.7702 93.8407 63.5171C127.494 57.2639 141.751 62.0544 159.812 57.0813C177.873 52.1082 192.607 45.7309 192.598 34.8403C192.59 23.9497 180.112 12.1814 162.417 6.65729C144.722 1.13321 90.109 0.445681 89.5753 0.410939C89.0417 0.376196 26.9954 0.0846118 26.6572 0.0720659C26.319 0.0595201 15.5018 -0.169369 0.0032633 0.260216C-0.0191392 9.9068 0.0812384 57.2958 0.078525 83.7985Z" sodipodi:nodetypes="czzzzzzzcc"/><path id="shape06" transform="matrix(0.998234496742687 0 0 1.00015433288338 455.264246829071 103.560000126213)" fill="#8c4bc9" fill-rule="evenodd" stroke-opacity="0" stroke="#000000" stroke-width="0" stroke-linecap="square" stroke-linejoin="bevel" d="M58.44 0L0 96.72L84.6144 96.8138C84.6151 96.8251 84.6244 93.2398 84.6144 87.7965C84.6194 87.7133 84.5751 75.0277 84.6219 67.7745C84.6209 67.7718 84.536 59.3087 84.6288 51.6253C84.617 51.5592 84.6149 44.7207 84.6394 42.8868C84.6304 42.8263 84.6411 40.4191 84.6341 40.3894C84.632 39.9915 84.6311 39.2557 84.6288 39.2546L58.44 0" sodipodi:nodetypes="cccccccccc"/><path id="shape011" transform="matrix(1.10467994251779 0 0 1.10467994251779 338.032523692209 67.2599988640322)" fill="#8c4bc9" fill-rule="evenodd" stroke-opacity="0" stroke="#000000" stroke-width="0" stroke-linecap="square" stroke-linejoin="bevel" d="M0 120.321L72.2946 0L151.717 120.491L0 120.321" sodipodi:nodetypes="cccc"/><path id="shape011" transform="matrix(1.52544417676405 0 0 1.52544417676405 417.704270591412 67.2600038471858)" fill="#3f4dc1" fill-rule="evenodd" stroke-opacity="0" stroke="#000000" stroke-width="0" stroke-linecap="square" stroke-linejoin="bevel" d="M0.117998 0L57.551 87.2414L37.5333 87.25L0 7.10543e-15" sodipodi:nodetypes="cccc"/><path id="shape12" transform="translate(513.629248460794, 103.695000453339)" fill="#3f4dc1" fill-rule="evenodd" stroke-opacity="0" stroke="#000000" stroke-width="0" stroke-linecap="square" stroke-linejoin="bevel" d="M0 0C8.72079 13.0394 17.4761 26.065 26.1037 39.1416L26.0931 54.5848L0 0" sodipodi:nodetypes="cccc"/><g id="group01" transform="matrix(0.999798024851756 0 0 1.00097807551099 321.645941915674 79.8323863924914)" fill="none">
  <path id="shape07" transform="translate(66.4373312038375, 0)" fill="#7d7dff" fill-rule="evenodd" stroke-opacity="0" stroke="#000000" stroke-width="0" stroke-linecap="square" stroke-linejoin="bevel" d="M0 120.321L72.2946 0L151.717 120.491L0 120.321" sodipodi:nodetypes="cccc"/>
  <path id="shape012" transform="matrix(0.999999978195119 0 0 0.999999978195119 0 32.1906751883406)" fill="#7d7dff" stroke-opacity="0" stroke="#000000" stroke-width="0" stroke-linecap="square" stroke-linejoin="bevel" d="M0 87.9935L52.8707 0L110.954 88.1178L0 87.9935" sodipodi:nodetypes="cccc"/>
 </g><path id="shape13" transform="translate(374.66334123313, 112.48382404656)" fill="#1e74fd" fill-rule="evenodd" stroke-opacity="0" stroke="#000000" stroke-width="0" stroke-linecap="square" stroke-linejoin="bevel" d="M0 0L58.1666 87.8227L38.1413 87.9075L0 0" sodipodi:nodetypes="cccc"/><path id="shape22" transform="translate(460.245002468077, 79.8749999839151)" fill="#1e74fd" fill-rule="evenodd" stroke-opacity="0" stroke="#000000" stroke-width="0" stroke-linecap="square" stroke-linejoin="bevel" d="M0 0L79.44 120.48L60.2666 120.521L0 0" sodipodi:nodetypes="cccc"/><ellipse id="shape31" transform="matrix(1.1703831129714 0.0228741658495508 -0.0228741658495508 1.1703831129714 309.871469968421 315.46116696283)" rx="50.4000109364211" ry="63.4497714480987" cx="50.4000109364211" cy="63.4497714480987" fill="#343f4c" fill-rule="evenodd" stroke-opacity="0" stroke="#000000" stroke-width="0" stroke-linecap="square" stroke-linejoin="bevel"/><path id="shape61" transform="matrix(2.80733170575241 -1.56361191574986 1.56361191574986 2.80733170575241 445.382755517896 437.903107161497)" fill="#343f4c" fill-rule="evenodd" stroke-opacity="0" stroke="#000000" stroke-width="0" stroke-linecap="square" stroke-linejoin="bevel" d="M5.78892 14.2508C2.75496 12.9998 0.941097 10.7641 0.347331 7.54357C-0.246433 4.32305 -0.0789148 1.80852 0.849883 0C4.52043 1.61026 6.73355 3.58283 7.48925 5.91771C8.24495 8.25259 8.08303 10.668 7.00344 13.1639C7.00344 13.1639 6.59861 13.5262 5.78892 14.2508Z" sodipodi:nodetypes="czczcc"/><path id="shape013" transform="matrix(2.72931916935538 1.69611629127572 -1.69611629127572 2.72931916935538 492.859664164257 422.406740503744)" fill="#343f4c" fill-rule="evenodd" stroke-opacity="0" stroke="#000000" stroke-width="0" stroke-linecap="square" stroke-linejoin="bevel" d="M4.85695 13.832C2.49268 14.6917 1.03387 13.5586 0.480532 10.4327C-0.0728072 7.30678 -0.148264 3.82922 0.254166 0C3.67481 1.56294 5.73728 3.47756 6.4415 5.74383C7.14577 8.01011 6.99484 10.3545 5.98876 12.7771C5.98876 12.7771 5.61148 13.1288 4.85695 13.832Z" sodipodi:nodetypes="czczcc"/><path id="shape7" transform="matrix(3.20612285665457 -0.216263166616013 0.216263166616013 3.20612285665457 435.79609331379 475.802571681801)" fill="#343f4c" fill-rule="evenodd" stroke-opacity="0" stroke="#000000" stroke-width="0" stroke-linecap="square" stroke-linejoin="bevel" d="M18.3063 0.152228C19.9241 3.25786 21.7737 5.78211 23.8552 7.72501C26.9774 10.6394 27.3703 11.4297 28.7324 13.7687C30.0944 16.1079 30.4727 25.2531 25.3629 29.3115C20.2531 33.3698 16.5699 32.7758 13.246 32.6675C9.92218 32.5592 8.43998 32.3802 4.50407 29.779C0.568172 27.1778 -1.19331 17.7142 0.871094 14.2728C2.9355 10.8314 4.38039 9.2481 6.61419 7.77193C8.84799 6.29575 11.9458 0.169244 11.3104 0.0151701C11.7791 -0.113262 12.7127 0.629699 18.3063 0.152228Z" sodipodi:nodetypes="czzzzzzzcc"/><ellipse id="shape08" transform="matrix(1.29538442968323 0.241039297697849 -0.239011771309735 1.32065689037368 499.85682187817 433.975956366634)" rx="7.44455642271956" ry="15.8804200723775" cx="7.44455642271956" cy="15.8804200723775" fill="#343f4c" fill-rule="evenodd" stroke-opacity="0" stroke="#000000" stroke-width="0" stroke-linecap="square" stroke-linejoin="bevel"/><path id="shape14" transform="matrix(1.14541844573573 0.660711983758682 -0.650510593041122 1.16862921392708 435.217881135053 397.431315786532)" fill="#343f4c" fill-rule="evenodd" stroke-opacity="0" stroke="#000000" stroke-width="0" stroke-linecap="square" stroke-linejoin="bevel" d="M71.52 26.88L15.12 87.6L0 75.84L61.92 0C61.92 0 65.12 8.96 71.52 26.88Z" sodipodi:nodetypes="ccccc"/><g id="group02" transform="translate(231.657012979919, 446.637504089157)" fill="none">
  <path id="shape014" transform="translate(5.90845405668006e-06, -7.62491936256993e-08)" fill="#343f4c" fill-rule="evenodd" stroke-opacity="0" stroke="#000000" stroke-width="0" stroke-linecap="square" stroke-linejoin="bevel" d="M111.543 0.23998C112.183 15.92 111.703 24.32 110.103 25.44C107.703 27.12 51.543 45.6 46.023 49.44C40.503 53.28 43.143 50.64 35.463 57.84C27.783 65.04 1.863 161.28 1.383 165.84C0.902989 170.4 -1.737 189.6 1.863 200.4C5.463 211.2 18.903 225.6 33.063 214.08C42.503 206.4 51.623 196.08 60.423 183.12L60.663 255.84L134.343 255.84L134.703 0.240029C131.983 -0.0799934 124.263 -0.0800097 111.543 0.23998Z" sodipodi:nodetypes="czzzzzzccccc"/>
  <path id="shape0111" transform="matrix(-0.999999985439969 0 0 0.999999985439969 268.667981067847 0.0201466817147775)" fill="#343f4c" fill-rule="evenodd" stroke-opacity="0" stroke="#000000" stroke-width="0" stroke-linecap="square" stroke-linejoin="bevel" d="M111.543 0.23998C112.183 15.92 111.703 24.32 110.103 25.44C107.703 27.12 51.543 45.6 46.023 49.44C40.503 53.28 43.143 50.64 35.463 57.84C27.783 65.04 1.863 161.28 1.383 165.84C0.902987 170.4 -1.737 189.6 1.863 200.4C5.463 211.2 18.903 225.6 33.063 214.08C42.503 206.4 51.623 196.08 60.423 183.12L60.663 255.84L134.343 255.84L134.703 0.240029C131.983 -0.0799934 124.263 -0.0800097 111.543 0.23998Z" sodipodi:nodetypes="czzzzzzccccc"/>
 </g>
</svg>
