<?xml version="1.0" standalone="no"?>
<!DOCTYPE svg PUBLIC "-//W3C//DTD SVG 20010904//EN" "http://www.w3.org/TR/2001/REC-SVG-20010904/DTD/svg10.dtd">
<!-- Created using Krita: https://krita.org -->
<svg xmlns="http://www.w3.org/2000/svg"
    xmlns:xlink="http://www.w3.org/1999/xlink"
    xmlns:krita="http://krita.org/namespaces/svg/krita"
    xmlns:sodipodi="http://sodipodi.sourceforge.net/DTD/sodipodi-0.dtd"
    width="576pt"
    height="864pt"
    viewBox="0 0 576 864">
<style>
@font-face {
    font-family: "Bebas Neue";
    font-style: normal;
    font-weight: 400;
    src: url("../fonts/bebas-neue.woff2") format("woff2");
}
</style>
<defs/>
<rect id="shape0" fill="#000000" fill-rule="evenodd" stroke-opacity="0" stroke="#000000" stroke-width="0" stroke-linecap="square" stroke-linejoin="bevel" width="576" height="864"/><text id="shape01" krita:useRichText="true" krita:textVersion="2" transform="translate(64.125, 826.839995265157)" fill="#ffffff" stroke-opacity="0" stroke="#000000" stroke-width="0" stroke-linecap="square" stroke-linejoin="bevel" font-family="Bebas Neue" font-size="125" font-size-adjust="0.538577" font-stretch="normal" letter-spacing="0" word-spacing="0"><tspan x="0">PILGRIMAGE</tspan></text><rect id="shape2" transform="matrix(0.999999966519569 0 0 1.09459568873566 36.0075002675058 36.9696170643598)" fill="#b5deff" fill-rule="evenodd" stroke-opacity="0" stroke="#000000" stroke-width="0" stroke-linecap="square" stroke-linejoin="bevel" width="503.762472191549" height="149.313460738347"/><ellipse id="shape02" transform="matrix(0.82629830919449 0.000459711050989262 -0.00600396271481299 0.789997930155887 244.245724107994 50.3619361984238)" rx="67.1400129501504" ry="67.1400129501505" cx="67.1400129501504" cy="67.1400129501505" fill="#f5bd77" fill-rule="evenodd" stroke="#000000" stroke-width="1.2" stroke-linecap="square" stroke-linejoin="bevel"/><ellipse id="shape01" transform="matrix(0.826298344047193 0.00045971107037956 -0.00600396296805606 0.789997963477459 254.465938083259 60.5056722059365)" rx="54.6331654825686" ry="54.6331654825687" cx="54.6331654825686" cy="54.6331654825687" fill="#fcdd93" fill-rule="evenodd" stroke="#000000" stroke-width="1.2" stroke-linecap="square" stroke-linejoin="bevel"/><ellipse id="shape02" transform="matrix(0.826298337171515 0.000459711066554277 -0.00600396291809672 0.789997956903843 265.67916725676 70.9768981406963)" rx="40.9691693717836" ry="40.9691693717837" cx="40.9691693717836" cy="40.9691693717837" fill="#f2ebb5" fill-rule="evenodd" stroke="#000000" stroke-width="1.2" stroke-linecap="square" stroke-linejoin="bevel"/><rect id="shape1" transform="matrix(1 0 0 0.972805623603951 36.0112510890568 200.377487460633)" fill="#eaae83" fill-rule="evenodd" stroke="#000000" stroke-width="1.2" stroke-linecap="square" stroke-linejoin="bevel" width="503.756206836721" height="516.127036687369"/><rect id="shape03" transform="translate(225.33749999742, 200.174999984914)" fill="#88b988" fill-rule="evenodd" stroke="#000000" stroke-width="1.2" stroke-linecap="square" stroke-linejoin="bevel" width="314.4" height="70.0649830783031"/><path id="shape04" transform="matrix(0.987759691697556 0.155983131036301 -0.155983131036301 0.987759691697556 85.0872528917773 219.106105844071)" fill="#47a7c7" fill-rule="evenodd" stroke="#000000" stroke-width="1.2" stroke-linecap="square" stroke-linejoin="bevel" d="M0 314.696L460.307 0L482.312 139.367L26.9143 485.103L14.9268 409.027L9.65894e-15 314.696" sodipodi:nodetypes="cccccc"/><path id="shape05" transform="matrix(1.74643776624113 0 0 1.11712064502722 126.99739479809 400.742463194951)" fill="#ce435c" fill-rule="evenodd" stroke="#000000" stroke-width="1.2" stroke-linecap="square" stroke-linejoin="bevel" d="M15.1767 270.251C6.53668 242.411 1.48851 212.184 0.0485104 180.504C-2.11149 132.984 68.4485 150.984 94.3685 129.024C120.288 107.064 156.768 97.824 171.888 88.104C187.008 78.384 188.809 25.5841 204.769 12.624C215.409 3.98404 226.02 -0.0788413 236.339 0.00115821C236.344 3.70074 236.339 7.44712 236.343 11.4312C236.432 104.544 236.344 270.236 236.345 270.255C236.381 270.112 109.611 269.82 15.1767 270.251Z" sodipodi:nodetypes="czzzzcccc"/><path id="shape11" transform="matrix(1.74643776624113 0 0 1.11712064502722 374.22001371032 425.53877421422)" fill="#c23357" fill-rule="evenodd" stroke="#000000" stroke-width="1.2" stroke-linecap="square" stroke-linejoin="bevel" d="M56.1608 0C45.8724 38.3391 38.2724 59.6265 33.5206 63.5863C28.7689 67.5461 17.5434 73.1867 0 79.8761C0.0171778 79.9902 18.8255 52.9482 56.1608 0Z" sodipodi:nodetypes="czcc"/><path id="shape21" transform="matrix(1.76031960449293 0 0 1.12321723504746 37.1655336310363 583.108553169101)" fill="#c23357" fill-rule="evenodd" stroke="#000000" stroke-width="1.2" stroke-linecap="square" stroke-linejoin="bevel" d="M54.5659 0C35.4972 36.6807 19.0687 68.7794 0 105.46L70.0326 106.266C54.9126 47.0671 46.5659 13.28 54.5659 0Z" sodipodi:nodetypes="cccc"/><path id="shape3" transform="matrix(0.991589024419173 0 -0.00113596899269168 0.956686609716453 36.1732165398581 203.049807033202)" fill="#c23357" fill-rule="evenodd" stroke="#000000" stroke-width="1.2" stroke-linecap="square" stroke-linejoin="bevel" d="M0.150328 283.703C40.9503 269.783 70.7666 242.399 93.8066 228.639C128.367 207.999 171.927 193.479 203.607 182.919C235.287 172.359 245.247 146.919 263.007 117.639C280.767 88.3582 260.127 52.5986 252.447 42.9986C244.767 33.3986 206.847 -3.56138 164.127 0.278617C121.407 4.11862 116.127 9.87862 74.8466 9.39862C47.3266 9.07862 22.6866 7.15862 0.92663 3.63862C-0.149139 3.88611 -0.0611496 103.938 0.0888796 236.67C0.110345 252.027 0.126615 267.553 0.150328 283.703Z" sodipodi:nodetypes="czzzzzzccc"/><path id="shape4" transform="matrix(0.991589024419173 0 -0.00113596899269168 0.956686609716453 36.1019600020124 199.502172438374)" fill="#ce435c" fill-rule="evenodd" stroke="#000000" stroke-width="1.2" stroke-linecap="square" stroke-linejoin="bevel" d="M0.113586 182.303C54.4705 170.765 82.8492 160.801 100.61 147.121C127.25 126.601 197.871 119.279 209.391 113.519C220.911 107.759 262.127 77.5469 253.127 46.9469C244.127 16.3469 204.565 -5.5164 214.247 1.22688C223.929 7.97016 172.922 77.8372 86.4459 75.3869C-0.0289515 72.9366 -0.78586 67.0392 0.491358 67.2166C-0.225032 68.9018 0.0283995 75.3671 0.113586 182.303Z" sodipodi:nodetypes="czzzzzcc"/><path id="shape5" transform="matrix(0.991589024419173 0 -0.00113596899269168 0.956686609716453 35.8718354166522 79.4737470896912)" fill="#c23357" fill-rule="evenodd" stroke="#000000" stroke-width="1.2" stroke-linecap="square" stroke-linejoin="bevel" d="M0.422866 249.694C35.8775 239.594 42.06 235.937 70.86 224.057C99.66 212.177 149.126 201.638 169.74 189.017C190.354 176.396 214.343 148.053 216.143 129.333C217.943 110.613 206.82 87.9767 203.94 71.0567C202.02 59.7767 197.922 36.16 192.722 0C170.322 13.92 154.38 20.0567 143.82 18.6167C127.98 16.4567 107.34 25.4567 77.1 31.5767C46.86 37.6967 62.34 34.5767 35.34 24.1367C17.34 17.1767 5.4699 15.9111 0.429893 19.9911C0.00161418 42.857 -0.269129 143.758 0.422866 249.694Z" sodipodi:nodetypes="czzzzczzzcc"/><path id="shape6" transform="matrix(0.991589024419173 0 -0.00113596899269168 0.956686609716453 35.9970615994924 46.1910560987243)" fill="#ce435c" fill-rule="evenodd" stroke="#000000" stroke-width="1.2" stroke-linecap="square" stroke-linejoin="bevel" d="M0.078525 83.7985C0.418318 83.5395 14.3252 85.7531 39.9065 77.4015C65.4878 69.0498 60.1877 69.7702 93.8407 63.5171C127.494 57.2639 141.751 62.0544 159.812 57.0813C177.873 52.1082 192.607 45.7309 192.598 34.8403C192.59 23.9497 180.112 12.1814 162.417 6.65729C144.722 1.13321 90.109 0.445681 89.5753 0.410939C89.0417 0.376196 26.9954 0.0846118 26.6572 0.0720659C26.319 0.0595201 15.5018 -0.169369 0.0032633 0.260216C-0.0191392 9.9068 0.0812384 57.2958 0.078525 83.7985Z" sodipodi:nodetypes="czzzzzzzcc"/><path id="shape06" transform="matrix(0.998234496742687 0 0 1.00015433288338 455.264246829071 103.560000126213)" fill="#845eb2" fill-rule="evenodd" stroke="#000000" stroke-width="1.2" stroke-linecap="square" stroke-linejoin="bevel" d="M58.44 0L0 96.72L84.6144 96.8138C84.6151 96.8251 84.6244 93.2398 84.6144 87.7965C84.6194 87.7133 84.5751 75.0277 84.6219 67.7745C84.6209 67.7718 84.536 59.3087 84.6288 51.6253C84.617 51.5592 84.6149 44.7207 84.6394 42.8868C84.6304 42.8263 84.6411 40.4191 84.6341 40.3894C84.632 39.9915 84.6311 39.2557 84.6288 39.2546L58.44 0" sodipodi:nodetypes="cccccccccc"/><path id="shape011" transform="matrix(1.10467994251779 0 0 1.10467994251779 338.452523712592 67.1399988582086)" fill="#845eb2" fill-rule="evenodd" stroke="#000000" stroke-width="1.2" stroke-linecap="square" stroke-linejoin="bevel" d="M0 120.321L72.2946 0L151.717 120.491L0 120.321" sodipodi:nodetypes="cccc"/><path id="shape011" transform="matrix(1.52544417676405 0 0 1.52544417676405 418.804359705784 67.6071018205212)" fill="#4e4b9c" fill-rule="evenodd" stroke="#000000" stroke-width="0.96" stroke-linecap="square" stroke-linejoin="bevel" d="M0.055625 0.11125L57.3018 86.5419L37.2841 86.5505L0 0" sodipodi:nodetypes="cccc"/><path id="shape12" transform="translate(513.629248460794, 103.695000453339)" fill="#4e4b9c" fill-rule="evenodd" stroke="#000000" stroke-width="1.2" stroke-linecap="square" stroke-linejoin="bevel" d="M0 0C8.72079 13.0394 17.4761 26.065 26.1037 39.1416L26.0931 54.5848L0 0" sodipodi:nodetypes="cccc"/><path id="shape07" transform="matrix(0.999798024851756 0 0 1.00097807551099 388.069854429693 79.8323863924914)" fill="#9797e9" fill-rule="evenodd" stroke="#000000" stroke-width="1.2" stroke-linecap="square" stroke-linejoin="bevel" d="M0 120.321L72.2946 0L151.717 120.491C152.029 120.432 50.4713 120.327 0 120.321" sodipodi:nodetypes="cccc"/><path id="shape012" transform="matrix(0.999798003051279 0 0 1.00097805368478 321.645941915674 112.054546491916)" fill="#9797e9" stroke="#000000" stroke-width="1.2" stroke-linecap="square" stroke-linejoin="bevel" d="M0 87.9935L52.8707 0L110.954 88.1178L0 87.9935" sodipodi:nodetypes="cccc"/><path id="shape13" transform="translate(374.903341237176, 112.243824042514)" fill="#485fbb" fill-rule="evenodd" stroke="#000000" stroke-width="1.2" stroke-linecap="square" stroke-linejoin="bevel" d="M0 0L58.1666 87.8227L38.1413 87.9075L0 0" sodipodi:nodetypes="cccc"/><path id="shape22" transform="translate(460.245002468077, 79.8749999839151)" fill="#485fbb" fill-rule="evenodd" stroke="#000000" stroke-width="1.2" stroke-linecap="square" stroke-linejoin="bevel" d="M0 0L79.44 120.48L60.2666 120.521L0 0" sodipodi:nodetypes="cccc"/><path id="shape61" transform="matrix(2.80733171283238 -1.56361191969322 1.56361191969322 2.80733171283238 449.24261120374 413.751162726683)" fill="#000000" fill-rule="evenodd" stroke-opacity="0" stroke="#000000" stroke-width="0" stroke-linecap="square" stroke-linejoin="bevel" d="M5.78892 14.2508C2.75496 12.9998 0.941097 10.7641 0.347331 7.54357C-0.246433 4.32305 -0.0789148 1.80852 0.849883 0C4.52043 1.61026 6.73355 3.58283 7.48925 5.91771C8.24495 8.25259 8.08303 10.668 7.00344 13.1639C7.00344 13.1639 6.59861 13.5262 5.78892 14.2508Z" sodipodi:nodetypes="czczcc"/><path id="shape013" transform="matrix(2.72931917623861 1.69611629555325 -1.69611629555325 2.72931917623861 496.719519395564 398.254796101368)" fill="#000000" fill-rule="evenodd" stroke-opacity="0" stroke="#000000" stroke-width="0" stroke-linecap="square" stroke-linejoin="bevel" d="M4.85695 13.832C2.49268 14.6917 1.03387 13.5586 0.480532 10.4327C-0.0728072 7.30678 -0.148264 3.82922 0.254166 0C3.67481 1.56294 5.73728 3.47756 6.4415 5.74383C7.14577 8.01011 6.99484 10.3545 5.98876 12.7771C5.98876 12.7771 5.61148 13.1288 4.85695 13.832Z" sodipodi:nodetypes="czczcc"/><path id="shape7" transform="matrix(3.20612286474028 -0.216263167161419 0.216263167161419 3.20612286474028 439.655954936417 451.650627101412)" fill="#000000" fill-rule="evenodd" stroke-opacity="0" stroke="#000000" stroke-width="0" stroke-linecap="square" stroke-linejoin="bevel" d="M18.3063 0.152228C19.9241 3.25786 21.7737 5.78211 23.8552 7.72501C26.9774 10.6394 27.3703 11.4297 28.7324 13.7687C30.0944 16.1079 30.4727 25.2531 25.3629 29.3115C20.2531 33.3698 16.5699 32.7758 13.246 32.6675C9.92218 32.5592 8.43998 32.3802 4.50407 29.779C0.568172 27.1778 -1.19331 17.7142 0.871094 14.2728C2.9355 10.8314 4.38039 9.2481 6.61419 7.77193C8.84799 6.29575 11.9458 0.169244 11.3104 0.0151701C11.7791 -0.113262 12.7127 0.629699 18.3063 0.152228Z" sodipodi:nodetypes="czzzzzzzcc"/><ellipse id="shape08" transform="matrix(1.29538443295013 0.24103929830574 -0.239011771912513 1.32065689370432 503.716677337863 409.824012124396)" rx="7.44455642271956" ry="15.8804200723775" cx="7.44455642271956" cy="15.8804200723775" fill="#000000" fill-rule="evenodd" stroke-opacity="0" stroke="#000000" stroke-width="0" stroke-linecap="square" stroke-linejoin="bevel"/><path id="shape14" transform="matrix(1.14541844862443 0.660711985424969 -0.650510594681682 1.16862921687431 439.07773643173 373.27937145213)" fill="#000000" fill-rule="evenodd" stroke-opacity="0" stroke="#000000" stroke-width="0" stroke-linecap="square" stroke-linejoin="bevel" d="M71.52 26.88L15.12 87.6L0 75.84L61.92 0C61.92 0 65.12 8.96 71.52 26.88Z" sodipodi:nodetypes="ccccc"/><path id="shape09" transform="matrix(-0.547859065230749 -0.0411414774078528 -0.0411414774078528 0.54785906523075 337.744754633862 385.806813675905)" fill="#000000" fill-rule="evenodd" stroke="#000000" stroke-width="3.04848014831543" stroke-linecap="square" stroke-linejoin="bevel" d="M12.7279 0.211938C14.9409 -0.266838 17.0484 0.0986449 19.0919 0.975613C20.7057 2.07392 22.3736 3.00984 23.1648 6.5759C24.367 12.0277 24.6755 18.3076 24.1831 24.2677C22.4845 32.4267 20.9257 39.9059 16.2281 47.0507C15.2675 49.0441 12.2465 55.4902 8.59133 59.6513C5.98211 61.5327 3.37289 61.0422 0.763675 60.7968L0 21.3403C2.39082 8.49096 6.63346 1.44818 12.7279 0.211938Z" sodipodi:nodetypes="ccccccccc"/><path id="shape014" transform="matrix(0.548096687574815 -0.0378445934859652 0.0378445934859652 0.548096687574816 404.353376779236 385.771466830276)" fill="#000000" fill-rule="evenodd" stroke="#000000" stroke-width="3.04848014831543" stroke-linecap="square" stroke-linejoin="bevel" d="M12.7279 0.211938C14.9409 -0.266838 17.0484 0.098645 19.0919 0.975613C20.7057 2.07392 22.3736 3.00984 23.1648 6.5759C24.367 12.0277 24.6755 18.3076 24.1831 24.2677C22.4845 32.4267 20.9257 39.9059 16.2281 47.0507C15.2675 49.0441 12.2465 55.4902 8.59133 59.6513C5.98211 61.5327 3.37289 61.0422 0.763675 60.7968L0 21.3403C2.39082 8.49096 6.63346 1.44818 12.7279 0.211938Z" sodipodi:nodetypes="ccccccccc"/><path id="shape015" transform="matrix(0.519378925696304 0.00156241030486249 -0.00156241030486249 0.519378925696305 335.22359491212 387.557794575986)" fill="#000000" fill-rule="evenodd" stroke="#000000" stroke-width="3.04848014831543" stroke-linecap="square" stroke-linejoin="bevel" d="M0 0.654579L0.763675 63.7851C1.03757 74.5459 2.9506 83.9954 6.61852 92.0411C11.2006 100.336 15.7826 101.807 20.3647 105.024L21.6375 126.406L69.4945 126.406L69.4945 1.1637C68.6459 -0.193949 45.4811 -0.363655 0 0.654579Z" sodipodi:nodetypes="cccccccc"/><path id="shape021" transform="matrix(-0.519378903434869 -0.00156241023789502 -0.00156241023789502 0.51937890343487 407.598327571142 387.778143583495)" fill="#000000" fill-rule="evenodd" stroke="#000000" stroke-width="3.04848014831543" stroke-linecap="square" stroke-linejoin="bevel" d="M0 0.654579L0.763675 63.7851C1.03757 74.5459 2.9506 83.9954 6.61852 92.0411C11.2006 100.336 15.7826 101.807 20.3647 105.024L21.6375 126.406L69.4945 126.406L69.4945 1.1637C68.6459 -0.193949 45.4811 -0.363655 0 0.654579Z" sodipodi:nodetypes="cccccccc"/><path id="shape15" transform="matrix(0.486252721982866 0.00146275912634488 -0.00146275912634488 0.486252721982867 329.758154638291 330.997859208224)" fill="#000000" fill-rule="evenodd" stroke="#000000" stroke-width="3.04848014831543" stroke-linecap="square" stroke-linejoin="bevel" d="M5.49391 126.388C3.32019 111.821 1.43536 96.8686 0.275444 80.9496C-0.69753 75.8082 0.985139 53.0342 4.09382 46.5842C5.03599 45.042 6.73466 33.2226 17.2036 25.5831C19.5508 23.0889 23.0026 21.8835 27.3859 21.7648C32.8659 20.9516 35.0098 23.4747 38.3319 24.8195C36.8803 19.5606 39.0541 16.8397 40.8775 13.8734C44.3613 9.89487 48.6002 7.42678 53.0963 5.47301C63.3587 2.33756 74.6511 0.0825675 85.5919 0C96.5735 0.282432 104.064 0.931318 117.881 3.81838C127.355 6.19426 134.076 9.4611 139.137 11.837C148.166 17.3652 153.929 24.3454 160.011 31.1834C165.241 40.093 166.536 49.0025 168.157 57.9121C169.496 67.3307 170.292 76.7494 169.939 86.168C169.43 94.7707 168.92 103.579 168.411 111.878C168.46 116.09 167.738 121.458 167.139 126.643C167.139 126.643 113.257 126.558 5.49391 126.388Z" sodipodi:nodetypes="ccccccccccccccccc"/><path id="shape010" transform="matrix(0.488222070825467 0 0 0.488222070825467 267.192391925903 452.758552926934)" fill="#000000" fill-rule="evenodd" stroke="#000000" stroke-width="3.04848014831543" stroke-linecap="square" stroke-linejoin="bevel" d="M155.575 1.818L213.895 0L213.895 516.848L86.606 516.848L87.081 355.421L86.452 356.224L85.833 357.047L85.223 357.891L84.621 358.754L84.026 359.634L83.438 360.532L82.856 361.445L82.279 362.373L81.707 363.315L81.138 364.27L80.572 365.237L80.008 366.214L79.446 367.202L78.884 368.198L78.322 369.202L77.76 370.213L77.196 371.229L76.63 372.25L76.06 373.276L75.487 374.303L74.91 375.333L74.327 376.363L73.738 377.394L73.142 378.422L72.539 379.449L71.928 380.472L71.307 381.491L70.677 382.505L70.037 383.512L69.385 384.512L68.721 385.504L68.045 386.486L67.355 387.458L66.651 388.419L65.932 389.367L65.197 390.302L64.446 391.222L63.678 392.127L62.892 393.016L62.087 393.887L61.263 394.74L60.418 395.574L59.553 396.386L58.666 397.178L57.757 397.947L56.824 398.693L55.868 399.414L54.887 400.109L53.881 400.779L52.848 401.42L51.789 402.033L50.702 402.617L49.587 403.17L48.443 403.692L47.269 404.181L46.064 404.636L44.828 405.057L43.56 405.442L42.259 405.791L40.925 406.102L39.556 406.375L38.152 406.607L36.713 406.8L36.05 406.618L35.387 406.436L34.725 406.252L34.064 406.065L33.404 405.874L32.745 405.678L32.088 405.476L31.432 405.266L30.779 405.047L30.127 404.819L29.477 404.58L28.83 404.328L28.185 404.064L27.543 403.785L26.904 403.491L26.267 403.181L25.634 402.852L25.004 402.505L24.378 402.138L23.755 401.75L23.137 401.339L22.522 400.905L21.911 400.447L21.305 399.962L20.703 399.452L20.106 398.913L19.513 398.345L18.926 397.747L18.344 397.117L17.767 396.455L17.196 395.759L16.63 395.029L16.071 394.263L15.517 393.459L14.969 392.618L14.428 391.737L13.894 390.816L13.366 389.853L12.845 388.847L12.331 387.798L11.824 386.703L11.325 385.563L10.833 384.375L10.349 383.139L9.873 381.853L9.404 380.517L8.944 379.128L8.493 377.687L8.05 376.192L7.616 374.641L7.19 373.034L6.774 371.37L6.367 369.647L5.969 367.864L5.581 366.02L5.203 364.114L4.834 362.145L4.476 360.112L4.128 358.013L3.79 355.848L3.463 353.615L3.146 351.313L2.841 348.941L2.67 345.399L2.506 342.013L2.35 338.779L2.2 335.694L2.057 332.753L1.921 329.952L1.791 327.286L1.667 324.751L1.55 322.344L1.439 320.06L1.333 317.894L1.233 315.843L1.139 313.903L1.05 312.068L0.966 310.336L0.887 308.701L0.814 307.16L0.745 305.708L0.68 304.341L0.62 303.056L0.565 301.847L0.513 300.711L0.465 299.643L0.422 298.639L0.382 297.695L0.345 296.807L0.312 295.97L0.282 295.181L0.255 294.435L0.231 293.728L0.21 293.056L0.191 292.414L0.175 291.798L0.161 291.205L0.149 290.63L0.14 290.068L0.132 289.516L0.125 288.97L0.12 288.424L0.117 287.876L0.115 287.32L0.113 286.753L0.113 286.17L0.114 285.567L0.115 284.94L0.116 284.285L0.118 283.598L0.12 282.874L0.121 282.109L0.123 281.299L0.124 280.439L0.125 279.527L0.125 278.556L0.124 277.524L0.123 276.426L0.12 275.257L0.116 274.014L0.111 272.692L0.103 271.288L0.095 269.796L0.084 268.213L0.071 266.535L0.056 264.757L0.023 263.47L0.004 262.149L0 260.795L0.011 259.407L0.036 257.988L0.074 256.537L0.126 255.056L0.191 253.545L0.269 252.005L0.36 250.438L0.462 248.843L0.577 247.221L0.703 245.574L0.84 243.902L0.988 242.207L1.146 240.488L1.315 238.746L1.493 236.983L1.681 235.199L1.879 233.395L2.085 231.571L2.3 229.73L2.523 227.87L2.754 225.994L2.992 224.102L3.238 222.194L3.49 220.272L3.75 218.337L4.015 216.388L4.287 214.428L4.564 212.456L4.847 210.474L5.134 208.482L5.426 206.482L5.723 204.473L6.023 202.457L6.327 200.435L6.635 198.406L6.945 196.374L7.258 194.337L7.574 192.296L7.891 190.254L8.211 188.209L8.531 186.164L8.853 184.119L9.176 182.075L9.499 180.032L9.822 177.991L10.144 175.954L10.466 173.92L10.788 171.891L11.108 169.868L11.426 167.851L11.743 165.842L12.058 163.84L12.369 161.847L12.679 159.863L12.984 157.89L13.287 155.928L13.586 153.978L13.88 152.041L14.17 150.117L14.455 148.208L14.678 146.535L14.923 144.88L15.189 143.242L15.475 141.622L15.781 140.02L16.106 138.436L16.449 136.871L16.811 135.323L17.19 133.795L17.586 132.285L17.998 130.794L18.425 129.323L18.868 127.87L19.324 126.437L19.795 125.024L20.279 123.63L20.775 122.257L21.284 120.903L21.803 119.57L22.334 118.257L22.875 116.964L23.425 115.692L23.984 114.442L24.552 113.212L25.127 112.003L25.71 110.816L26.299 109.651L26.895 108.507L27.495 107.385L28.101 106.285L28.711 105.207L29.324 104.151L29.94 103.118L30.559 102.108L31.179 101.121L31.801 100.156L32.423 99.215L33.046 98.297L33.667 97.403L34.288 96.532L34.907 95.685L35.523 94.862L36.136 94.063L36.746 93.289L37.352 92.539L37.953 91.813L38.548 91.113L39.137 90.437L39.72 89.786L40.296 89.161L40.864 88.561L41.424 87.987L41.974 87.439L42.515 86.916L43.046 86.42L43.566 85.95L44.075 85.506L44.572 85.089L45.056 84.699L45.527 84.335L45.984 83.999L46.427 83.69L46.855 83.408L47.18 83.085L47.541 82.754L47.937 82.416L48.368 82.07L48.833 81.719L49.33 81.361L49.86 80.997L50.42 80.627L51.01 80.252L51.629 79.872L52.276 79.487L52.95 79.098L53.65 78.705L54.376 78.308L55.126 77.908L55.9 77.505L56.695 77.099L57.513 76.69L58.351 76.28L59.209 75.868L60.086 75.454L60.98 75.039L61.892 74.624L62.819 74.208L63.762 73.792L64.718 73.376L65.688 72.96L66.67 72.546L67.664 72.132L68.668 71.72L69.681 71.31L70.704 70.902L71.733 70.497L72.77 70.094L73.812 69.695L74.859 69.298L75.91 68.906L76.964 68.518L78.02 68.134L79.077 67.755L80.135 67.381L81.191 67.012L82.246 66.649L83.299 66.292L84.348 65.941L85.393 65.597L86.432 65.26L87.465 64.931L88.491 64.609L89.508 64.295L90.517 63.989L91.515 63.692L92.503 63.404L93.479 63.125L94.442 62.856L95.391 62.597L96.326 62.348L97.245 62.11L98.148 61.882L99.033 61.666L99.9 61.461L100.748 61.269L101.575 61.088L102.966 60.643L104.311 60.214L105.613 59.801L106.871 59.403L108.088 59.019L109.264 58.649L110.402 58.291L111.503 57.946L112.567 57.613L113.597 57.29L114.593 56.978L115.557 56.675L116.491 56.381L117.396 56.095L118.272 55.817L119.122 55.545L119.947 55.28L120.748 55.02L121.527 54.766L122.284 54.515L123.022 54.268L123.741 54.023L124.443 53.781L125.13 53.54L125.802 53.3L126.461 53.06L127.109 52.82L127.747 52.578L128.375 52.335L128.996 52.088L129.611 51.839L130.221 51.586L130.828 51.328L131.432 51.065L132.036 50.795L132.641 50.52L133.247 50.237L133.857 49.945L134.472 49.646L135.092 49.337L135.72 49.018L136.357 48.688L137.004 48.347L137.662 47.994L138.334 47.628L139.019 47.249L139.72 46.856L140.439 46.448L141.175 46.025L141.931 45.585L142.708 45.129L143.507 44.656L144.331 44.164L145.179 43.654L146.054 43.124L146.956 42.574L147.888 42.004L148.85 41.412L149.844 40.797L150.872 40.16L151.934 39.5L153.032 38.815L154.167 38.106L154.163 38.092L154.16 38.05L154.158 37.98L154.157 37.882L154.158 37.757L154.16 37.603L154.163 37.422L154.168 37.213L154.174 36.976L154.181 36.71L154.189 36.417L154.199 36.097L154.21 35.748L154.222 35.371L154.236 34.966L154.251 34.534L154.267 34.074L154.284 33.585L154.303 33.069L154.323 32.525L154.344 31.953L154.366 31.353L154.39 30.725L154.415 30.069L154.442 29.386L154.469 28.674L154.498 27.935L154.528 27.168L154.56 26.372L154.592 25.549L154.626 24.698L154.662 23.819L154.698 22.912L154.736 21.978L154.775 21.015L154.816 20.024L154.857 19.006L154.9 17.96L154.944 16.885L154.99 15.783L155.037 14.653L155.085 13.495L155.134 12.309L155.185 11.095L155.237 9.854L155.29 8.584L155.344 7.287L155.4 5.961L155.457 4.608L155.515 3.227L155.575 1.818" sodipodi:nodetypes="ccccccccccccccccccccccccccccccccccccccccccccccccccccccccccccccccccccccccccccccccccccccccccccccccccccccccccccccccccccccccccccccccccccccccccccccccccccccccccccccccccccccccccccccccccccccccccccccccccccccccccccccccccccccccccccccccccccccccccccccccccccccccccccccccccccccccccccccccccccccccccccccccccccccccccccccccccccccccccccccccccccccccccccccccccccccccccccccccccccccccccccccccccccccccccccccccccccccccccccccccccccccccccccccccccccccccccccccccccccccccccccccccccccccccccccccccccccccccccccccccccccccccccccccccc"/><path id="shape011" transform="matrix(-0.488222070180866 0 0 0.488222070180866 475.23040481733 452.650671350188)" fill="#000000" fill-rule="evenodd" stroke="#000000" stroke-width="3.04848014831543" stroke-linecap="square" stroke-linejoin="bevel" d="M155.575 1.818L213.895 0L213.895 516.848L86.606 516.848L87.081 355.421L86.452 356.224L85.833 357.047L85.223 357.891L84.621 358.754L84.026 359.634L83.438 360.532L82.856 361.445L82.279 362.373L81.707 363.315L81.138 364.27L80.572 365.237L80.008 366.214L79.446 367.202L78.884 368.198L78.322 369.202L77.76 370.213L77.196 371.229L76.63 372.25L76.06 373.276L75.487 374.303L74.91 375.333L74.327 376.363L73.738 377.394L73.142 378.422L72.539 379.449L71.928 380.472L71.307 381.491L70.677 382.505L70.037 383.512L69.385 384.512L68.721 385.504L68.045 386.486L67.355 387.458L66.651 388.419L65.932 389.367L65.197 390.302L64.446 391.222L63.678 392.127L62.892 393.016L62.087 393.887L61.263 394.74L60.418 395.574L59.553 396.386L58.666 397.178L57.757 397.947L56.824 398.693L55.868 399.414L54.887 400.109L53.881 400.779L52.848 401.42L51.789 402.033L50.702 402.617L49.587 403.17L48.443 403.692L47.269 404.181L46.064 404.636L44.828 405.057L43.56 405.442L42.259 405.791L40.925 406.102L39.556 406.375L38.152 406.607L36.713 406.8L36.05 406.618L35.387 406.436L34.725 406.252L34.064 406.065L33.404 405.874L32.745 405.678L32.088 405.476L31.432 405.266L30.779 405.047L30.127 404.819L29.477 404.58L28.83 404.328L28.185 404.064L27.543 403.785L26.904 403.491L26.267 403.181L25.634 402.852L25.004 402.505L24.378 402.138L23.755 401.75L23.137 401.339L22.522 400.905L21.911 400.447L21.305 399.962L20.703 399.452L20.106 398.913L19.513 398.345L18.926 397.747L18.344 397.117L17.767 396.455L17.196 395.759L16.63 395.029L16.071 394.263L15.517 393.459L14.969 392.618L14.428 391.737L13.894 390.816L13.366 389.853L12.845 388.847L12.331 387.798L11.824 386.703L11.325 385.563L10.833 384.375L10.349 383.139L9.873 381.853L9.404 380.517L8.944 379.128L8.493 377.687L8.05 376.192L7.616 374.641L7.19 373.034L6.774 371.37L6.367 369.647L5.969 367.864L5.581 366.02L5.203 364.114L4.834 362.145L4.476 360.112L4.128 358.013L3.79 355.848L3.463 353.615L3.146 351.313L2.841 348.941L2.67 345.399L2.506 342.013L2.35 338.779L2.2 335.694L2.057 332.753L1.921 329.952L1.791 327.286L1.667 324.751L1.55 322.344L1.439 320.06L1.333 317.894L1.233 315.843L1.139 313.903L1.05 312.068L0.966 310.336L0.887 308.701L0.814 307.16L0.745 305.708L0.68 304.341L0.62 303.056L0.565 301.847L0.513 300.711L0.465 299.643L0.422 298.639L0.382 297.695L0.345 296.807L0.312 295.97L0.282 295.181L0.255 294.435L0.231 293.728L0.21 293.056L0.191 292.414L0.175 291.798L0.161 291.205L0.149 290.63L0.14 290.068L0.132 289.516L0.125 288.97L0.12 288.424L0.117 287.876L0.115 287.32L0.113 286.753L0.113 286.17L0.114 285.567L0.115 284.94L0.116 284.285L0.118 283.598L0.12 282.874L0.121 282.109L0.123 281.299L0.124 280.439L0.125 279.527L0.125 278.556L0.124 277.524L0.123 276.426L0.12 275.257L0.116 274.014L0.111 272.692L0.103 271.288L0.095 269.796L0.084 268.213L0.071 266.535L0.056 264.757L0.023 263.47L0.004 262.149L0 260.795L0.011 259.407L0.036 257.988L0.074 256.537L0.126 255.056L0.191 253.545L0.269 252.005L0.36 250.438L0.462 248.843L0.577 247.221L0.703 245.574L0.84 243.902L0.988 242.207L1.146 240.488L1.315 238.746L1.493 236.983L1.681 235.199L1.879 233.395L2.085 231.571L2.3 229.73L2.523 227.87L2.754 225.994L2.992 224.102L3.238 222.194L3.49 220.272L3.75 218.337L4.015 216.388L4.287 214.428L4.564 212.456L4.847 210.474L5.134 208.482L5.426 206.482L5.723 204.473L6.023 202.457L6.327 200.435L6.635 198.406L6.945 196.374L7.258 194.337L7.574 192.296L7.891 190.254L8.211 188.209L8.531 186.164L8.853 184.119L9.176 182.075L9.499 180.032L9.822 177.991L10.144 175.954L10.466 173.92L10.788 171.891L11.108 169.868L11.426 167.851L11.743 165.842L12.058 163.84L12.369 161.847L12.679 159.863L12.984 157.89L13.287 155.928L13.586 153.978L13.88 152.041L14.17 150.117L14.455 148.208L14.678 146.535L14.923 144.88L15.189 143.242L15.475 141.622L15.781 140.02L16.106 138.436L16.449 136.871L16.811 135.323L17.19 133.795L17.586 132.285L17.998 130.794L18.425 129.323L18.868 127.87L19.324 126.437L19.795 125.024L20.279 123.63L20.775 122.257L21.284 120.903L21.803 119.57L22.334 118.257L22.875 116.964L23.425 115.692L23.984 114.442L24.552 113.212L25.127 112.003L25.71 110.816L26.299 109.651L26.895 108.507L27.495 107.385L28.101 106.285L28.711 105.207L29.324 104.151L29.94 103.118L30.559 102.108L31.179 101.121L31.801 100.156L32.423 99.215L33.046 98.297L33.667 97.403L34.288 96.532L34.907 95.685L35.523 94.862L36.136 94.063L36.746 93.289L37.352 92.539L37.953 91.813L38.548 91.113L39.137 90.437L39.72 89.786L40.296 89.161L40.864 88.561L41.424 87.987L41.974 87.439L42.515 86.916L43.046 86.42L43.566 85.95L44.075 85.506L44.572 85.089L45.056 84.699L45.527 84.335L45.984 83.999L46.427 83.69L46.855 83.408L47.18 83.085L47.541 82.754L47.937 82.416L48.368 82.07L48.833 81.719L49.33 81.361L49.86 80.997L50.42 80.627L51.01 80.252L51.629 79.872L52.276 79.487L52.95 79.098L53.65 78.705L54.376 78.308L55.126 77.908L55.9 77.505L56.695 77.099L57.513 76.69L58.351 76.28L59.209 75.868L60.086 75.454L60.98 75.039L61.892 74.624L62.819 74.208L63.762 73.792L64.718 73.376L65.688 72.96L66.67 72.546L67.664 72.132L68.668 71.72L69.681 71.31L70.704 70.902L71.733 70.497L72.77 70.094L73.812 69.695L74.859 69.298L75.91 68.906L76.964 68.518L78.02 68.134L79.077 67.755L80.135 67.381L81.191 67.012L82.246 66.649L83.299 66.292L84.348 65.941L85.393 65.597L86.432 65.26L87.465 64.931L88.491 64.609L89.508 64.295L90.517 63.989L91.515 63.692L92.503 63.404L93.479 63.125L94.442 62.856L95.391 62.597L96.326 62.348L97.245 62.11L98.148 61.882L99.033 61.666L99.9 61.461L100.748 61.269L101.575 61.088L102.966 60.643L104.311 60.214L105.613 59.801L106.871 59.403L108.088 59.019L109.264 58.649L110.402 58.291L111.503 57.946L112.567 57.613L113.597 57.29L114.593 56.978L115.557 56.675L116.491 56.381L117.396 56.095L118.272 55.817L119.122 55.545L119.947 55.28L120.748 55.02L121.527 54.766L122.284 54.515L123.022 54.268L123.741 54.023L124.443 53.781L125.13 53.54L125.802 53.3L126.461 53.06L127.109 52.82L127.747 52.578L128.375 52.335L128.996 52.088L129.611 51.839L130.221 51.586L130.828 51.328L131.432 51.065L132.036 50.795L132.641 50.52L133.247 50.237L133.857 49.945L134.472 49.646L135.092 49.337L135.72 49.018L136.357 48.688L137.004 48.347L137.662 47.994L138.334 47.628L139.019 47.249L139.72 46.856L140.439 46.448L141.175 46.025L141.931 45.585L142.708 45.129L143.507 44.656L144.331 44.164L145.179 43.654L146.054 43.124L146.956 42.574L147.888 42.004L148.85 41.412L149.844 40.797L150.872 40.16L151.934 39.5L153.032 38.815L154.167 38.106L154.163 38.092L154.16 38.05L154.158 37.98L154.157 37.882L154.158 37.757L154.16 37.603L154.163 37.422L154.168 37.213L154.174 36.976L154.181 36.71L154.189 36.417L154.199 36.097L154.21 35.748L154.222 35.371L154.236 34.966L154.251 34.534L154.267 34.074L154.284 33.585L154.303 33.069L154.323 32.525L154.344 31.953L154.366 31.353L154.39 30.725L154.415 30.069L154.442 29.386L154.469 28.674L154.498 27.935L154.528 27.168L154.56 26.372L154.592 25.549L154.626 24.698L154.662 23.819L154.698 22.912L154.736 21.978L154.775 21.015L154.816 20.024L154.857 19.006L154.9 17.96L154.944 16.885L154.99 15.783L155.037 14.653L155.085 13.495L155.134 12.309L155.185 11.095L155.237 9.854L155.29 8.584L155.344 7.287L155.4 5.961L155.457 4.608L155.515 3.227L155.575 1.818" sodipodi:nodetypes="ccccccccccccccccccccccccccccccccccccccccccccccccccccccccccccccccccccccccccccccccccccccccccccccccccccccccccccccccccccccccccccccccccccccccccccccccccccccccccccccccccccccccccccccccccccccccccccccccccccccccccccccccccccccccccccccccccccccccccccccccccccccccccccccccccccccccccccccccccccccccccccccccccccccccccccccccccccccccccccccccccccccccccccccccccccccccccccccccccccccccccccccccccccccccccccccccccccccccccccccccccccccccccccccccccccccccccccccccccccccccccccccccccccccccccccccccccccccccccccccccccccccccccccccccc"/>
</svg>
