<?xml version="1.0" encoding="UTF-8" standalone="no"?>
<!DOCTYPE svg PUBLIC "-//W3C//DTD SVG 1.1//EN" "http://www.w3.org/Graphics/SVG/1.1/DTD/svg11.dtd">
<svg width="100%" height="100%" viewBox="0 0 576 864" version="1.1" xmlns="http://www.w3.org/2000/svg" xmlns:xlink="http://www.w3.org/1999/xlink" xml:space="preserve" xmlns:serif="http://www.serif.com/" style="fill-rule:evenodd;clip-rule:evenodd;stroke-linecap:square;stroke-linejoin:bevel;">
<style>
@font-face {
    font-family: "Bebas Neue";
    font-style: normal;
    font-weight: 400;
    src: url("../fonts/bebas-neue.woff2") format("woff2");
}
</style>
    <rect id="Background" x="0" y="0" width="576" height="864"/>
    <g id="Company-Name" serif:id="Company Name" transform="matrix(1,0,0,1,64.125,826.84)">
        <text x="0px" y="0px" style="font-family:'BebasNeue-Regular', 'Bebas Neue', sans-serif;font-size:125px;fill:white;">PIL<tspan x="114.75px " y="0px ">G</tspan>RIMA<tspan x="355.125px " y="0px ">G</tspan>E</text>
    </g>
    <g id="Sky" transform="matrix(1,0,0,1.0946,36.0075,36.9696)">
        <rect x="0" y="0" width="503.762" height="149.313" style="fill:rgb(181,222,255);"/>
    </g>
    <g id="Sun">
        <g id="shape02" transform="matrix(0.826298,0.000459711,-0.00600396,0.789998,244.246,50.3619)">
            <circle cx="67.14" cy="67.14" r="67.14" style="fill:rgb(245,189,119);stroke:black;stroke-width:1.2px;"/>
        </g>
        <g id="shape01" transform="matrix(0.826298,0.000459711,-0.00600396,0.789998,254.466,60.5057)">
            <circle cx="54.633" cy="54.633" r="54.633" style="fill:rgb(252,221,147);stroke:black;stroke-width:1.2px;"/>
        </g>
        <g id="shape021" serif:id="shape02" transform="matrix(0.826298,0.000459711,-0.00600396,0.789998,265.679,70.9769)">
            <circle cx="40.969" cy="40.969" r="40.969" style="fill:rgb(242,235,181);stroke:black;stroke-width:1.2px;"/>
        </g>
    </g>
    <g id="Sand" transform="matrix(1,0,0,0.972806,36.0113,200.377)">
        <rect x="0" y="0" width="503.756" height="516.127" style="fill:rgb(234,174,131);stroke:black;stroke-width:1.2px;"/>
    </g>
    <g id="Grass" transform="matrix(1,0,0,1,225.337,200.175)">
        <rect x="0" y="0" width="314.4" height="70.065" style="fill:rgb(136,185,136);stroke:black;stroke-width:1.2px;"/>
    </g>
    <g id="River" transform="matrix(0.98776,0.155983,-0.155983,0.98776,85.0873,219.106)">
        <path d="M0,314.696L460.307,0L482.312,139.367L26.914,485.103L14.927,409.027L0,314.696" style="fill:rgb(71,167,199);stroke:black;stroke-width:1.2px;"/>
    </g>
    <g id="Right-Cliff" serif:id="Right Cliff">
        <g id="shape05" transform="matrix(1.74644,0,0,1.11712,126.997,400.742)">
            <path d="M15.177,270.251C6.537,242.411 1.489,212.184 0.049,180.504C-2.111,132.984 68.449,150.984 94.369,129.024C120.288,107.064 156.768,97.824 171.888,88.104C187.008,78.384 188.809,25.584 204.769,12.624C215.409,3.984 226.02,-0.079 236.339,0.001C236.344,3.701 236.339,7.447 236.343,11.431C236.432,104.544 236.344,270.236 236.345,270.255C236.381,270.112 109.611,269.82 15.177,270.251Z" style="fill:rgb(206,67,92);stroke:black;stroke-width:1.2px;"/>
        </g>
        <g id="shape11" transform="matrix(1.74644,0,0,1.11712,374.22,425.539)">
            <path d="M56.161,0C45.872,38.339 38.272,59.627 33.521,63.586C28.769,67.546 17.543,73.187 0,79.876C0.017,79.99 18.826,52.948 56.161,0Z" style="fill:rgb(194,51,87);stroke:black;stroke-width:1.2px;"/>
        </g>
        <g id="shape21" transform="matrix(1.76032,0,0,1.12322,37.1655,583.109)">
            <path d="M54.566,0C35.497,36.681 19.069,68.779 0,105.46L70.033,106.266C54.913,47.067 46.566,13.28 54.566,0Z" style="fill:rgb(194,51,87);stroke:black;stroke-width:1.2px;"/>
        </g>
    </g>
    <g id="Left-Cliff" serif:id="Left Cliff">
        <g id="shape3" transform="matrix(0.991589,0,-0.00113597,0.956687,36.1732,203.05)">
            <path d="M0.15,283.703C40.95,269.783 70.767,242.399 93.807,228.639C128.367,207.999 171.927,193.479 203.607,182.919C235.287,172.359 245.247,146.919 263.007,117.639C280.767,88.358 260.127,52.599 252.447,42.999C244.767,33.399 206.847,-3.561 164.127,0.279C121.407,4.119 116.127,9.879 74.847,9.399C47.327,9.079 22.687,7.159 0.927,3.639C-0.149,3.886 -0.061,103.938 0.089,236.67C0.11,252.027 0.127,267.553 0.15,283.703Z" style="fill:rgb(194,51,87);stroke:black;stroke-width:1.2px;"/>
        </g>
        <g id="shape4" transform="matrix(0.991589,0,-0.00113597,0.956687,36.102,199.502)">
            <path d="M0.114,182.303C54.471,170.765 82.849,160.801 100.61,147.121C127.25,126.601 197.871,119.279 209.391,113.519C220.911,107.759 262.127,77.547 253.127,46.947C244.127,16.347 204.565,-5.516 214.247,1.227C223.929,7.97 172.922,77.837 86.446,75.387C-0.029,72.937 -0.786,67.039 0.491,67.217C-0.225,68.902 0.028,75.367 0.114,182.303Z" style="fill:rgb(206,67,92);stroke:black;stroke-width:1.2px;"/>
        </g>
        <g id="shape5" transform="matrix(0.991589,0,-0.00113597,0.956687,35.8718,79.4737)">
            <path d="M0.423,249.694C35.878,239.594 42.06,235.937 70.86,224.057C99.66,212.177 149.126,201.638 169.74,189.017C190.354,176.396 214.343,148.053 216.143,129.333C217.943,110.613 206.82,87.977 203.94,71.057C202.02,59.777 197.922,36.16 192.722,0C170.322,13.92 154.38,20.057 143.82,18.617C127.98,16.457 107.34,25.457 77.1,31.577C46.86,37.697 62.34,34.577 35.34,24.137C17.34,17.177 5.47,15.911 0.43,19.991C0.002,42.857 -0.269,143.758 0.423,249.694Z" style="fill:rgb(194,51,87);stroke:black;stroke-width:1.2px;"/>
        </g>
        <g id="shape6" transform="matrix(0.991589,0,-0.00113597,0.956687,35.9971,46.1911)">
            <path d="M0.079,83.799C0.418,83.54 14.325,85.753 39.907,77.402C65.488,69.05 60.188,69.77 93.841,63.517C127.494,57.264 141.751,62.054 159.812,57.081C177.873,52.108 192.607,45.731 192.598,34.84C192.59,23.95 180.112,12.181 162.417,6.657C144.722,1.133 90.109,0.446 89.575,0.411C89.042,0.376 26.995,0.085 26.657,0.072C26.319,0.06 15.502,-0.169 0.003,0.26C-0.019,9.907 0.081,57.296 0.079,83.799Z" style="fill:rgb(206,67,92);stroke:black;stroke-width:1.2px;"/>
        </g>
    </g>
    <g id="Background-Mountains" serif:id="Background Mountains">
        <g id="shape06" transform="matrix(0.998234,0,0,1.00015,455.264,103.56)">
            <path d="M58.44,0L0,96.72L84.614,96.814C84.615,96.825 84.624,93.24 84.614,87.797C84.619,87.713 84.575,75.028 84.622,67.775C84.621,67.772 84.536,59.309 84.629,51.625C84.617,51.559 84.615,44.721 84.639,42.887C84.63,42.826 84.641,40.419 84.634,40.389C84.632,39.992 84.631,39.256 84.629,39.255L58.44,0" style="fill:rgb(132,94,178);stroke:black;stroke-width:1.2px;"/>
        </g>
        <g id="shape011" transform="matrix(1.10468,0,0,1.10468,338.453,67.14)">
            <path d="M0,120.321L72.295,0L151.717,120.491L0,120.321" style="fill:rgb(132,94,178);stroke:black;stroke-width:1.2px;"/>
        </g>
        <g id="shape0111" serif:id="shape011" transform="matrix(1.52544,0,0,1.52544,418.804,67.6071)">
            <path d="M0.056,0.111L57.302,86.542L37.284,86.551L0,0" style="fill:rgb(78,75,156);stroke:black;stroke-width:0.96px;"/>
        </g>
        <g id="shape12" transform="matrix(1,0,0,1,513.629,103.695)">
            <path d="M0,0C8.721,13.039 17.476,26.065 26.104,39.142L26.093,54.585L0,0" style="fill:rgb(78,75,156);stroke:black;stroke-width:1.2px;"/>
        </g>
    </g>
    <g id="Foreground-Mountains" serif:id="Foreground Mountains">
        <g id="shape07" transform="matrix(0.999798,0,0,1.00098,388.07,79.8324)">
            <path d="M0,120.321L72.295,0L151.717,120.491C152.029,120.432 50.471,120.327 0,120.321" style="fill:rgb(151,151,233);stroke:black;stroke-width:1.2px;"/>
        </g>
        <g id="shape012" transform="matrix(0.999798,0,0,1.00098,321.646,112.055)">
            <path d="M0,87.994L52.871,0L110.954,88.118L0,87.994" style="fill:rgb(151,151,233);fill-rule:nonzero;stroke:black;stroke-width:1.2px;"/>
        </g>
        <g id="shape13" transform="matrix(1,0,0,1,374.903,112.244)">
            <path d="M0,0L58.167,87.823L38.141,87.908L0,0" style="fill:rgb(72,95,187);stroke:black;stroke-width:1.2px;"/>
        </g>
        <g id="shape22" transform="matrix(1,0,0,1,460.245,79.875)">
            <path d="M0,0L79.44,120.48L60.267,120.521L0,0" style="fill:rgb(72,95,187);stroke:black;stroke-width:1.2px;"/>
        </g>
    </g>
    <g id="Bindle">
        <g id="shape61" transform="matrix(2.80733,-1.56361,1.56361,2.80733,449.243,413.751)">
            <path d="M5.789,14.251C2.755,13 0.941,10.764 0.347,7.544C-0.246,4.323 -0.079,1.809 0.85,0C4.52,1.61 6.734,3.583 7.489,5.918C8.245,8.253 8.083,10.668 7.003,13.164C7.003,13.164 6.599,13.526 5.789,14.251Z"/>
        </g>
        <g id="shape013" transform="matrix(2.72932,1.69612,-1.69612,2.72932,496.72,398.255)">
            <path d="M4.857,13.832C2.493,14.692 1.034,13.559 0.481,10.433C-0.073,7.307 -0.148,3.829 0.254,0C3.675,1.563 5.737,3.478 6.441,5.744C7.146,8.01 6.995,10.355 5.989,12.777C5.989,12.777 5.611,13.129 4.857,13.832Z"/>
        </g>
        <g id="shape7" transform="matrix(3.20612,-0.216263,0.216263,3.20612,439.656,451.651)">
            <path d="M18.306,0.152C19.924,3.258 21.774,5.782 23.855,7.725C26.977,10.639 27.37,11.43 28.732,13.769C30.094,16.108 30.473,25.253 25.363,29.311C20.253,33.37 16.57,32.776 13.246,32.667C9.922,32.559 8.44,32.38 4.504,29.779C0.568,27.178 -1.193,17.714 0.871,14.273C2.936,10.831 4.38,9.248 6.614,7.772C8.848,6.296 11.946,0.169 11.31,0.015C11.779,-0.113 12.713,0.63 18.306,0.152Z"/>
        </g>
        <g id="shape08" transform="matrix(1.29538,0.241039,-0.239012,1.32066,503.717,409.824)">
            <ellipse cx="7.445" cy="15.88" rx="7.445" ry="15.88"/>
        </g>
        <g id="shape14" transform="matrix(1.14542,0.660712,-0.650511,1.16863,439.078,373.279)">
            <path d="M71.52,26.88L15.12,87.6L0,75.84L61.92,0C61.92,0 65.12,8.96 71.52,26.88Z"/>
        </g>
    </g>
    <g id="Head">
        <g id="shape09" transform="matrix(-0.547859,-0.0411415,-0.0411415,0.547859,337.745,385.807)">
            <path d="M12.728,0.212C14.941,-0.267 17.048,0.099 19.092,0.976C20.706,2.074 22.374,3.01 23.165,6.576C24.367,12.028 24.676,18.308 24.183,24.268C22.485,32.427 20.926,39.906 16.228,47.051C15.268,49.044 12.246,55.49 8.591,59.651C5.982,61.533 3.373,61.042 0.764,60.797L0,21.34C2.391,8.491 6.633,1.448 12.728,0.212Z" style="stroke:black;stroke-width:3.05px;"/>
        </g>
        <g id="shape014" transform="matrix(0.548097,-0.0378446,0.0378446,0.548097,404.353,385.771)">
            <path d="M12.728,0.212C14.941,-0.267 17.048,0.099 19.092,0.976C20.706,2.074 22.374,3.01 23.165,6.576C24.367,12.028 24.676,18.308 24.183,24.268C22.485,32.427 20.926,39.906 16.228,47.051C15.268,49.044 12.246,55.49 8.591,59.651C5.982,61.533 3.373,61.042 0.764,60.797L0,21.34C2.391,8.491 6.633,1.448 12.728,0.212Z" style="stroke:black;stroke-width:3.05px;"/>
        </g>
        <g id="shape015" transform="matrix(0.519379,0.00156241,-0.00156241,0.519379,335.224,387.558)">
            <path d="M0,0.655L0.764,63.785C1.038,74.546 2.951,83.995 6.619,92.041C11.201,100.336 15.783,101.807 20.365,105.024L21.638,126.406L69.495,126.406L69.495,1.164C68.646,-0.194 45.481,-0.364 0,0.655Z" style="stroke:black;stroke-width:3.05px;"/>
        </g>
        <g id="shape0211" serif:id="shape021" transform="matrix(-0.519379,-0.00156241,-0.00156241,0.519379,407.598,387.778)">
            <path d="M0,0.655L0.764,63.785C1.038,74.546 2.951,83.995 6.619,92.041C11.201,100.336 15.783,101.807 20.365,105.024L21.638,126.406L69.495,126.406L69.495,1.164C68.646,-0.194 45.481,-0.364 0,0.655Z" style="stroke:black;stroke-width:3.05px;"/>
        </g>
        <g id="shape15" transform="matrix(0.486253,0.00146276,-0.00146276,0.486253,329.758,330.998)">
            <path d="M5.494,126.388C3.32,111.821 1.435,96.869 0.275,80.95C-0.698,75.808 0.985,53.034 4.094,46.584C5.036,45.042 6.735,33.223 17.204,25.583C19.551,23.089 23.003,21.884 27.386,21.765C32.866,20.952 35.01,23.475 38.332,24.82C36.88,19.561 39.054,16.84 40.878,13.873C44.361,9.895 48.6,7.427 53.096,5.473C63.359,2.338 74.651,0.083 85.592,0C96.574,0.282 104.064,0.931 117.881,3.818C127.355,6.194 134.076,9.461 139.137,11.837C148.166,17.365 153.929,24.345 160.011,31.183C165.241,40.093 166.536,49.003 168.157,57.912C169.496,67.331 170.292,76.749 169.939,86.168C169.43,94.771 168.92,103.579 168.411,111.878C168.46,116.09 167.738,121.458 167.139,126.643C167.139,126.643 113.257,126.558 5.494,126.388Z" style="stroke:black;stroke-width:3.05px;"/>
        </g>
    </g>
    <g id="Body">
        <g id="shape010" transform="matrix(0.488222,0,0,0.488222,267.192,452.759)">
            <path d="M155.575,1.818L213.895,0L213.895,516.848L86.606,516.848L87.081,355.421L86.452,356.224L85.833,357.047L85.223,357.891L84.621,358.754L84.026,359.634L83.438,360.532L82.856,361.445L82.279,362.373L81.707,363.315L81.138,364.27L80.572,365.237L80.008,366.214L79.446,367.202L78.884,368.198L78.322,369.202L77.76,370.213L77.196,371.229L76.63,372.25L76.06,373.276L75.487,374.303L74.91,375.333L74.327,376.363L73.738,377.394L73.142,378.422L72.539,379.449L71.928,380.472L71.307,381.491L70.677,382.505L70.037,383.512L69.385,384.512L68.721,385.504L68.045,386.486L67.355,387.458L66.651,388.419L65.932,389.367L65.197,390.302L64.446,391.222L63.678,392.127L62.892,393.016L62.087,393.887L61.263,394.74L60.418,395.574L59.553,396.386L58.666,397.178L57.757,397.947L56.824,398.693L55.868,399.414L54.887,400.109L53.881,400.779L52.848,401.42L51.789,402.033L50.702,402.617L49.587,403.17L48.443,403.692L47.269,404.181L46.064,404.636L44.828,405.057L43.56,405.442L42.259,405.791L40.925,406.102L39.556,406.375L38.152,406.607L36.713,406.8L35.387,406.436L34.725,406.252L34.064,406.065L33.404,405.874L32.745,405.678L32.088,405.476L31.432,405.266L30.779,405.047L30.127,404.819L29.477,404.58L28.83,404.328L28.185,404.064L27.543,403.785L26.904,403.491L26.267,403.181L25.634,402.852L25.004,402.505L24.378,402.138L23.755,401.75L23.137,401.339L22.522,400.905L21.911,400.447L21.305,399.962L20.703,399.452L20.106,398.913L19.513,398.345L18.926,397.747L18.344,397.117L17.767,396.455L17.196,395.759L16.63,395.029L16.071,394.263L15.517,393.459L14.969,392.618L14.428,391.737L13.894,390.816L13.366,389.853L12.845,388.847L12.331,387.798L11.824,386.703L11.325,385.563L10.833,384.375L10.349,383.139L9.873,381.853L9.404,380.517L8.944,379.128L8.493,377.687L8.05,376.192L7.616,374.641L7.19,373.034L6.774,371.37L6.367,369.647L5.969,367.864L5.581,366.02L5.203,364.114L4.834,362.145L4.476,360.112L4.128,358.013L3.79,355.848L3.463,353.615L3.146,351.313L2.841,348.941L2.67,345.399L2.506,342.013L2.35,338.779L2.2,335.694L2.057,332.753L1.921,329.952L1.791,327.286L1.667,324.751L1.55,322.344L1.439,320.06L1.333,317.894L1.233,315.843L1.139,313.903L1.05,312.068L0.966,310.336L0.887,308.701L0.814,307.16L0.745,305.708L0.68,304.341L0.62,303.056L0.565,301.847L0.513,300.711L0.465,299.643L0.422,298.639L0.382,297.695L0.345,296.807L0.312,295.97L0.282,295.181L0.255,294.435L0.231,293.728L0.21,293.056L0.191,292.414L0.175,291.798L0.161,291.205L0.149,290.63L0.14,290.068L0.132,289.516L0.125,288.97L0.12,288.424L0.117,287.876L0.115,287.32L0.113,286.753L0.113,286.17L0.114,285.567L0.115,284.94L0.116,284.285L0.118,283.598L0.12,282.874L0.121,282.109L0.123,281.299L0.124,280.439L0.125,279.527L0.125,278.556L0.124,277.524L0.123,276.426L0.12,275.257L0.116,274.014L0.111,272.692L0.103,271.288L0.095,269.796L0.084,268.213L0.071,266.535L0.056,264.757L0.023,263.47L0.004,262.149L0,260.795L0.011,259.407L0.036,257.988L0.074,256.537L0.126,255.056L0.191,253.545L0.269,252.005L0.36,250.438L0.462,248.843L0.577,247.221L0.703,245.574L0.84,243.902L0.988,242.207L1.146,240.488L1.315,238.746L1.493,236.983L1.681,235.199L1.879,233.395L2.085,231.571L2.3,229.73L2.523,227.87L2.754,225.994L2.992,224.102L3.238,222.194L3.49,220.272L3.75,218.337L4.015,216.388L4.287,214.428L4.564,212.456L4.847,210.474L5.134,208.482L5.426,206.482L5.723,204.473L6.023,202.457L6.327,200.435L6.635,198.406L6.945,196.374L7.258,194.337L7.574,192.296L7.891,190.254L8.531,186.164L8.853,184.119L9.176,182.075L9.499,180.032L9.822,177.991L10.144,175.954L10.466,173.92L10.788,171.891L11.108,169.868L11.426,167.851L11.743,165.842L12.058,163.84L12.369,161.847L12.679,159.863L12.984,157.89L13.287,155.928L13.586,153.978L13.88,152.041L14.17,150.117L14.455,148.208L14.678,146.535L14.923,144.88L15.189,143.242L15.475,141.622L15.781,140.02L16.106,138.436L16.449,136.871L16.811,135.323L17.19,133.795L17.586,132.285L17.998,130.794L18.425,129.323L18.868,127.87L19.324,126.437L19.795,125.024L20.279,123.63L20.775,122.257L21.284,120.903L21.803,119.57L22.334,118.257L22.875,116.964L23.425,115.692L23.984,114.442L24.552,113.212L25.127,112.003L25.71,110.816L26.299,109.651L26.895,108.507L27.495,107.385L28.101,106.285L28.711,105.207L29.324,104.151L29.94,103.118L30.559,102.108L31.179,101.121L31.801,100.156L32.423,99.215L33.046,98.297L33.667,97.403L34.288,96.532L34.907,95.685L35.523,94.862L36.136,94.063L36.746,93.289L37.352,92.539L37.953,91.813L38.548,91.113L39.137,90.437L39.72,89.786L40.296,89.161L40.864,88.561L41.424,87.987L41.974,87.439L42.515,86.916L43.046,86.42L43.566,85.95L44.075,85.506L44.572,85.089L45.056,84.699L45.527,84.335L45.984,83.999L46.427,83.69L46.855,83.408L47.18,83.085L47.541,82.754L47.937,82.416L48.368,82.07L48.833,81.719L49.33,81.361L49.86,80.997L50.42,80.627L51.01,80.252L51.629,79.872L52.276,79.487L52.95,79.098L53.65,78.705L54.376,78.308L55.126,77.908L55.9,77.505L56.695,77.099L57.513,76.69L58.351,76.28L59.209,75.868L60.086,75.454L60.98,75.039L61.892,74.624L62.819,74.208L63.762,73.792L64.718,73.376L65.688,72.96L66.67,72.546L67.664,72.132L68.668,71.72L69.681,71.31L70.704,70.902L71.733,70.497L72.77,70.094L73.812,69.695L74.859,69.298L75.91,68.906L76.964,68.518L78.02,68.134L79.077,67.755L80.135,67.381L81.191,67.012L82.246,66.649L83.299,66.292L84.348,65.941L85.393,65.597L86.432,65.26L87.465,64.931L88.491,64.609L89.508,64.295L90.517,63.989L91.515,63.692L92.503,63.404L93.479,63.125L94.442,62.856L95.391,62.597L96.326,62.348L97.245,62.11L98.148,61.882L99.033,61.666L99.9,61.461L100.748,61.269L101.575,61.088L102.966,60.643L104.311,60.214L105.613,59.801L106.871,59.403L108.088,59.019L109.264,58.649L110.402,58.291L111.503,57.946L112.567,57.613L113.597,57.29L114.593,56.978L115.557,56.675L116.491,56.381L117.396,56.095L118.272,55.817L119.122,55.545L119.947,55.28L120.748,55.02L121.527,54.766L122.284,54.515L123.022,54.268L123.741,54.023L124.443,53.781L125.13,53.54L125.802,53.3L126.461,53.06L127.109,52.82L127.747,52.578L128.375,52.335L128.996,52.088L129.611,51.839L130.221,51.586L130.828,51.328L131.432,51.065L132.036,50.795L132.641,50.52L133.247,50.237L133.857,49.945L134.472,49.646L135.092,49.337L135.72,49.018L136.357,48.688L137.004,48.347L137.662,47.994L138.334,47.628L139.019,47.249L139.72,46.856L140.439,46.448L141.175,46.025L141.931,45.585L142.708,45.129L143.507,44.656L144.331,44.164L145.179,43.654L146.054,43.124L146.956,42.574L147.888,42.004L148.85,41.412L149.844,40.797L150.872,40.16L151.934,39.5L153.032,38.815L154.167,38.106L154.163,38.092L154.16,38.05L154.158,37.98L154.157,37.882L154.158,37.757L154.16,37.603L154.163,37.422L154.168,37.213L154.174,36.976L154.181,36.71L154.189,36.417L154.199,36.097L154.21,35.748L154.222,35.371L154.236,34.966L154.251,34.534L154.267,34.074L154.284,33.585L154.303,33.069L154.323,32.525L154.344,31.953L154.366,31.353L154.39,30.725L154.415,30.069L154.442,29.386L154.469,28.674L154.498,27.935L154.528,27.168L154.56,26.372L154.592,25.549L154.626,24.698L154.662,23.819L154.698,22.912L154.736,21.978L154.775,21.015L154.816,20.024L154.857,19.006L154.9,17.96L154.944,16.885L154.99,15.783L155.037,14.653L155.085,13.495L155.134,12.309L155.185,11.095L155.237,9.854L155.29,8.584L155.344,7.287L155.4,5.961L155.457,4.608L155.515,3.227L155.575,1.818" style="stroke:black;stroke-width:3.05px;"/>
        </g>
        <g id="shape0112" serif:id="shape011" transform="matrix(-0.488222,0,0,0.488222,475.23,452.651)">
            <path d="M155.575,1.818L213.895,0L213.895,516.848L86.606,516.848L87.081,355.421L86.452,356.224L85.833,357.047L85.223,357.891L84.621,358.754L84.026,359.634L83.438,360.532L82.856,361.445L82.279,362.373L81.707,363.315L81.138,364.27L80.572,365.237L80.008,366.214L79.446,367.202L78.884,368.198L78.322,369.202L77.76,370.213L77.196,371.229L76.63,372.25L76.06,373.276L75.487,374.303L74.91,375.333L74.327,376.363L73.738,377.394L73.142,378.422L72.539,379.449L71.928,380.472L71.307,381.491L70.677,382.505L70.037,383.512L69.385,384.512L68.721,385.504L68.045,386.486L67.355,387.458L66.651,388.419L65.932,389.367L65.197,390.302L64.446,391.222L63.678,392.127L62.892,393.016L62.087,393.887L61.263,394.74L60.418,395.574L59.553,396.386L58.666,397.178L57.757,397.947L56.824,398.693L55.868,399.414L54.887,400.109L53.881,400.779L52.848,401.42L51.789,402.033L50.702,402.617L49.587,403.17L48.443,403.692L47.269,404.181L46.064,404.636L44.828,405.057L43.56,405.442L42.259,405.791L40.925,406.102L39.556,406.375L38.152,406.607L36.713,406.8L35.387,406.436L34.725,406.252L34.064,406.065L33.404,405.874L32.745,405.678L32.088,405.476L31.432,405.266L30.779,405.047L30.127,404.819L29.477,404.58L28.83,404.328L28.185,404.064L27.543,403.785L26.904,403.491L26.267,403.181L25.634,402.852L25.004,402.505L24.378,402.138L23.755,401.75L23.137,401.339L22.522,400.905L21.911,400.447L21.305,399.962L20.703,399.452L20.106,398.913L19.513,398.345L18.926,397.747L18.344,397.117L17.767,396.455L17.196,395.759L16.63,395.029L16.071,394.263L15.517,393.459L14.969,392.618L14.428,391.737L13.894,390.816L13.366,389.853L12.845,388.847L12.331,387.798L11.824,386.703L11.325,385.563L10.833,384.375L10.349,383.139L9.873,381.853L9.404,380.517L8.944,379.128L8.493,377.687L8.05,376.192L7.616,374.641L7.19,373.034L6.774,371.37L6.367,369.647L5.969,367.864L5.581,366.02L5.203,364.114L4.834,362.145L4.476,360.112L4.128,358.013L3.79,355.848L3.463,353.615L3.146,351.313L2.841,348.941L2.67,345.399L2.506,342.013L2.35,338.779L2.2,335.694L2.057,332.753L1.921,329.952L1.791,327.286L1.667,324.751L1.55,322.344L1.439,320.06L1.333,317.894L1.233,315.843L1.139,313.903L1.05,312.068L0.966,310.336L0.887,308.701L0.814,307.16L0.745,305.708L0.68,304.341L0.62,303.056L0.565,301.847L0.513,300.711L0.465,299.643L0.422,298.639L0.382,297.695L0.345,296.807L0.312,295.97L0.282,295.181L0.255,294.435L0.231,293.728L0.21,293.056L0.191,292.414L0.175,291.798L0.161,291.205L0.149,290.63L0.14,290.068L0.132,289.516L0.125,288.97L0.12,288.424L0.117,287.876L0.115,287.32L0.113,286.753L0.113,286.17L0.114,285.567L0.115,284.94L0.116,284.285L0.118,283.598L0.12,282.874L0.121,282.109L0.123,281.299L0.124,280.439L0.125,279.527L0.125,278.556L0.124,277.524L0.123,276.426L0.12,275.257L0.116,274.014L0.111,272.692L0.103,271.288L0.095,269.796L0.084,268.213L0.071,266.535L0.056,264.757L0.023,263.47L0.004,262.149L0,260.795L0.011,259.407L0.036,257.988L0.074,256.537L0.126,255.056L0.191,253.545L0.269,252.005L0.36,250.438L0.462,248.843L0.577,247.221L0.703,245.574L0.84,243.902L0.988,242.207L1.146,240.488L1.315,238.746L1.493,236.983L1.681,235.199L1.879,233.395L2.085,231.571L2.3,229.73L2.523,227.87L2.754,225.994L2.992,224.102L3.238,222.194L3.49,220.272L3.75,218.337L4.015,216.388L4.287,214.428L4.564,212.456L4.847,210.474L5.134,208.482L5.426,206.482L5.723,204.473L6.023,202.457L6.327,200.435L6.635,198.406L6.945,196.374L7.258,194.337L7.574,192.296L7.891,190.254L8.531,186.164L8.853,184.119L9.176,182.075L9.499,180.032L9.822,177.991L10.144,175.954L10.466,173.92L10.788,171.891L11.108,169.868L11.426,167.851L11.743,165.842L12.058,163.84L12.369,161.847L12.679,159.863L12.984,157.89L13.287,155.928L13.586,153.978L13.88,152.041L14.17,150.117L14.455,148.208L14.678,146.535L14.923,144.88L15.189,143.242L15.475,141.622L15.781,140.02L16.106,138.436L16.449,136.871L16.811,135.323L17.19,133.795L17.586,132.285L17.998,130.794L18.425,129.323L18.868,127.87L19.324,126.437L19.795,125.024L20.279,123.63L20.775,122.257L21.284,120.903L21.803,119.57L22.334,118.257L22.875,116.964L23.425,115.692L23.984,114.442L24.552,113.212L25.127,112.003L25.71,110.816L26.299,109.651L26.895,108.507L27.495,107.385L28.101,106.285L28.711,105.207L29.324,104.151L29.94,103.118L30.559,102.108L31.179,101.121L31.801,100.156L32.423,99.215L33.046,98.297L33.667,97.403L34.288,96.532L34.907,95.685L35.523,94.862L36.136,94.063L36.746,93.289L37.352,92.539L37.953,91.813L38.548,91.113L39.137,90.437L39.72,89.786L40.296,89.161L40.864,88.561L41.424,87.987L41.974,87.439L42.515,86.916L43.046,86.42L43.566,85.95L44.075,85.506L44.572,85.089L45.056,84.699L45.527,84.335L45.984,83.999L46.427,83.69L46.855,83.408L47.18,83.085L47.541,82.754L47.937,82.416L48.368,82.07L48.833,81.719L49.33,81.361L49.86,80.997L50.42,80.627L51.01,80.252L51.629,79.872L52.276,79.487L52.95,79.098L53.65,78.705L54.376,78.308L55.126,77.908L55.9,77.505L56.695,77.099L57.513,76.69L58.351,76.28L59.209,75.868L60.086,75.454L60.98,75.039L61.892,74.624L62.819,74.208L63.762,73.792L64.718,73.376L65.688,72.96L66.67,72.546L67.664,72.132L68.668,71.72L69.681,71.31L70.704,70.902L71.733,70.497L72.77,70.094L73.812,69.695L74.859,69.298L75.91,68.906L76.964,68.518L78.02,68.134L79.077,67.755L80.135,67.381L81.191,67.012L82.246,66.649L83.299,66.292L84.348,65.941L85.393,65.597L86.432,65.26L87.465,64.931L88.491,64.609L89.508,64.295L90.517,63.989L91.515,63.692L92.503,63.404L93.479,63.125L94.442,62.856L95.391,62.597L96.326,62.348L97.245,62.11L98.148,61.882L99.033,61.666L99.9,61.461L100.748,61.269L101.575,61.088L102.966,60.643L104.311,60.214L105.613,59.801L106.871,59.403L108.088,59.019L109.264,58.649L110.402,58.291L111.503,57.946L112.567,57.613L113.597,57.29L114.593,56.978L115.557,56.675L116.491,56.381L117.396,56.095L118.272,55.817L119.122,55.545L119.947,55.28L120.748,55.02L121.527,54.766L122.284,54.515L123.022,54.268L123.741,54.023L124.443,53.781L125.13,53.54L125.802,53.3L126.461,53.06L127.109,52.82L127.747,52.578L128.375,52.335L128.996,52.088L129.611,51.839L130.221,51.586L130.828,51.328L131.432,51.065L132.036,50.795L132.641,50.52L133.247,50.237L133.857,49.945L134.472,49.646L135.092,49.337L135.72,49.018L136.357,48.688L137.004,48.347L137.662,47.994L138.334,47.628L139.019,47.249L139.72,46.856L140.439,46.448L141.175,46.025L141.931,45.585L142.708,45.129L143.507,44.656L144.331,44.164L145.179,43.654L146.054,43.124L146.956,42.574L147.888,42.004L148.85,41.412L149.844,40.797L150.872,40.16L151.934,39.5L153.032,38.815L154.167,38.106L154.163,38.092L154.16,38.05L154.158,37.98L154.157,37.882L154.158,37.757L154.16,37.603L154.163,37.422L154.168,37.213L154.174,36.976L154.181,36.71L154.189,36.417L154.199,36.097L154.21,35.748L154.222,35.371L154.236,34.966L154.251,34.534L154.267,34.074L154.284,33.585L154.303,33.069L154.323,32.525L154.344,31.953L154.366,31.353L154.39,30.725L154.415,30.069L154.442,29.386L154.469,28.674L154.498,27.935L154.528,27.168L154.56,26.372L154.592,25.549L154.626,24.698L154.662,23.819L154.698,22.912L154.736,21.978L154.775,21.015L154.816,20.024L154.857,19.006L154.9,17.96L154.944,16.885L154.99,15.783L155.037,14.653L155.085,13.495L155.134,12.309L155.185,11.095L155.237,9.854L155.29,8.584L155.344,7.287L155.4,5.961L155.457,4.608L155.515,3.227L155.575,1.818" style="stroke:black;stroke-width:3.05px;"/>
        </g>
    </g>
</svg>
